<svg width="161" height="189" viewBox="0 0 161 189" fill="none" xmlns="http://www.w3.org/2000/svg">
<path d="M65.1066 188.704C63.3007 187.926 51.3007 176.3 48.0371 172.166C35.5544 156.355 33.0846 143.112 39.5131 126.461C40.3548 124.28 41.5829 121.432 42.2423 120.13C42.9016 118.828 43.3424 117.665 43.2218 117.544C43.1012 117.423 41.5875 117.544 39.8582 117.813C35.3854 118.507 33.2597 118.424 29.23 117.4C19.3814 114.896 10.378 108.077 3.43086 97.8583C1.03233 94.3304 -0.236457 89.8668 0.0365466 85.9171C0.226582 83.1679 0.841125 81.2453 4.08076 73.2648C13.6183 49.7701 20.2518 36.3307 27.8565 25.0959C33.6401 16.5513 41.3249 10.0343 51.122 5.36569C59.0867 1.57037 66.1281 -0.00492814 75.106 1.15785e-05C90.5338 0.0073843 102.516 5.01649 115.555 16.9056C123.591 24.2325 128.61 29.9866 141.067 46.1536C147.455 54.4444 151.401 59.0894 156.187 63.9523C161.326 69.1745 161.676 70.1144 160.328 75.0931C158.243 82.7991 153.507 90.232 147.663 94.9707C142.173 99.4226 132.387 103.517 121.773 105.803C119.186 106.36 116.873 106.986 116.632 107.193C116.353 107.433 116.492 108.416 117.015 109.91C118.865 115.196 121.129 121.115 123.567 127.039C127.129 135.693 128.233 141.289 128.253 150.789C128.267 157.632 128.214 158.075 127.076 160.502C125.754 163.324 122.915 166.643 120.599 168.075C119.19 168.946 119.086 169.172 119.101 171.327C119.11 172.601 119.405 174.147 119.757 174.764C121.329 177.515 120.031 182.086 117.272 183.513C115.558 184.4 108.309 184.419 106.632 183.542C105.967 183.194 104.367 181.789 103.076 180.42C101.786 179.051 100.125 177.618 99.3863 177.236C97.3975 176.207 89.3076 174.662 85.7125 174.624C82.0473 174.586 80.4092 175.286 78.3686 177.762C77.1108 179.289 77.0149 179.632 77.2608 181.725C77.5632 184.299 76.9536 185.904 74.9686 187.761C73.9056 188.755 73.3334 188.893 69.8866 188.986C67.7504 189.044 65.5994 188.916 65.1066 188.704ZM69.5525 175.901C71.2915 172.932 75.4858 168.848 78.0973 167.58C82.203 165.587 92.4892 166.231 101.112 169.021C103.438 169.773 104.574 170.52 107.223 173.037L110.477 176.129L110.639 170.995C110.82 165.308 111.277 164.187 114.127 162.44C119.376 159.222 120.739 156.349 120.284 149.456C119.792 141.992 118.388 136.123 115.298 128.607C110.028 115.791 105.538 101.948 103.822 93.2221C103.527 91.7224 103.123 90.3949 102.924 90.2721C102.726 90.1493 100.384 91.5395 97.7215 93.3616C83.8963 102.821 68.0299 111.054 57.4867 114.238L54.3463 115.186L52.0562 119.32C43.3428 135.049 42.126 145.546 47.7324 156.622C50.7859 162.655 54.8665 167.934 61.4994 174.436C67.7366 180.549 67.7968 180.593 68.0662 179.29C68.2157 178.566 68.8846 177.041 69.5525 175.901ZM86.8324 135.962C86.4628 135.827 85.4164 135.402 84.507 135.018C82.7514 134.277 82.7518 134.291 84.428 131.811C84.4866 131.724 85.5819 132.001 86.8619 132.426C89.4207 133.276 92.0418 133.156 95.2785 132.041L97.2116 131.375L97.8203 132.792L98.4291 134.209L96.5503 135.07C94.6976 135.919 88.3179 136.505 86.8324 135.962ZM100.543 120.499C98.6103 118.978 97.5832 116.468 97.5832 113.265C97.5832 109.901 98.3789 108.442 100.213 108.442C103.368 108.442 106.253 115.02 104.788 118.874C104.283 120.202 103.092 121.437 102.315 121.437C101.996 121.437 101.199 121.015 100.543 120.499ZM103.242 112.706C103.622 111.716 101.938 109.114 100.918 109.114C100.257 109.114 100.077 109.381 100.171 110.219C100.438 112.606 102.607 114.362 103.242 112.706ZM45.431 108.417C54.2488 106.725 57.2964 105.837 63.9845 103.011C73.5615 98.9647 85.2144 91.9839 102.984 79.6476C106.919 76.9154 114.698 72.7991 119.574 70.8679C126.446 68.1469 132.889 67.5803 134.834 69.5263C135.759 70.4519 135.938 73.0273 135.175 74.4524C134.561 75.601 132.134 76.6256 130.028 76.6256C127.562 76.6256 120.766 79.0683 115.501 81.8467C112.914 83.212 110.727 84.3978 110.64 84.4818C110.468 84.648 112.515 94.6225 113.285 97.3666C113.843 99.357 113.352 99.3753 122.893 97.0083C139.261 92.9473 147.255 86.9977 151.321 75.8502L152.666 72.1619L148.682 68.0081C143.559 62.6655 141.156 59.7707 131.05 46.7651C118.23 30.2654 110.521 22.2986 101.615 16.3456C94.2227 11.4045 88.5316 9.3403 79.7781 8.42524C70.8354 7.49038 62.3053 9.06987 53.9078 13.2155C47.8108 16.2255 41.7689 20.7641 38.2172 25.0021C30.8566 33.7849 20.995 53.0764 11.2633 77.73C6.97646 88.5901 7.02013 89.0919 12.9162 96.7237C17.4989 102.655 22.5987 106.463 28.9811 108.716C33.0499 110.153 36.7372 110.086 45.431 108.417Z" fill="black"/>
<path d="M71.004 120.234C70.961 123.772 71.2547 125.209 72.2687 126.421C73.0064 127.303 74.4378 128 75.5113 128C79.2387 128 83.2357 120.306 82.9891 113.605L82.8979 111.125L82.4692 113.75C81.9438 116.967 80.3465 117.204 79.0411 114.257C77.3345 110.405 79.7406 106.288 81.6383 109.813C82.027 110.535 82.3547 110.814 82.3661 110.434C82.4101 108.991 80.0179 107 78.2408 107C74.5406 107 71.0881 113.313 71.004 120.234Z" fill="black"/>
<circle cx="77" cy="118" r="12.5" stroke="black" stroke-width="3"/>
<path d="M69 129L61.5 141" stroke="black" stroke-width="5" stroke-linecap="round"/>
<path d="M68.1246 118C67.7912 116.5 67.9246 113 71.1246 111" stroke="#CBCBCB" stroke-width="2" stroke-linecap="round"/>
</svg>
