<svg width="142" height="166" viewBox="0 0 142 166" fill="none" xmlns="http://www.w3.org/2000/svg">
<path d="M57.1888 164.996C55.6025 164.316 45.0619 154.151 42.1952 150.537C31.2305 136.712 29.0611 125.133 34.7078 110.573C35.4471 108.667 36.5259 106.176 37.1051 105.038C37.6842 103.9 38.0714 102.882 37.9655 102.776C37.8595 102.671 36.53 102.777 35.0109 103.011C31.0821 103.618 29.2149 103.546 25.6753 102.651C17.0244 100.461 9.11594 94.4985 3.01362 85.564C0.906782 82.4793 -0.207701 78.5765 0.032102 75.123C0.199027 72.7192 0.738834 71.0381 3.58448 64.0603C11.9622 43.5173 17.789 31.7664 24.4688 21.943C29.5491 14.4719 36.2993 8.77364 44.905 4.69158C51.901 1.37308 58.086 -0.004309 65.9721 1.01239e-05C79.5238 0.00645658 90.0488 4.38625 101.502 14.7817C108.56 21.1881 112.969 26.2193 123.911 40.3552C129.523 47.6044 132.989 51.6657 137.192 55.9177C141.707 60.4839 142.014 61.3057 140.83 65.6589C138.998 72.3967 134.838 78.8958 129.705 83.0392C124.883 86.9318 116.287 90.5118 106.964 92.5108C104.691 92.998 102.659 93.5447 102.448 93.7256C102.203 93.9354 102.325 94.7955 102.784 96.1016C104.409 100.723 106.398 105.898 108.54 111.079C111.668 118.645 112.638 123.538 112.656 131.845C112.668 137.829 112.621 138.216 111.622 140.338C110.461 142.805 107.967 145.707 105.932 146.96C104.695 147.721 104.604 147.919 104.617 149.803C104.624 150.917 104.884 152.269 105.193 152.807C106.574 155.213 105.434 159.21 103.01 160.457C101.505 161.233 95.1368 161.249 93.6643 160.483C93.0799 160.179 91.6743 158.95 90.5409 157.753C89.4074 156.556 87.9489 155.303 87.2997 154.969C85.5527 154.069 78.4467 152.718 75.2888 152.686C72.0693 152.652 70.6304 153.264 68.838 155.429C67.7332 156.764 67.6489 157.064 67.8649 158.895C68.1305 161.145 67.5951 162.549 65.8515 164.172C64.9177 165.041 64.4152 165.162 61.3875 165.243C59.5111 165.294 57.6217 165.181 57.1888 164.996ZM61.094 153.802C62.6216 151.206 66.3058 147.635 68.5996 146.527C72.2061 144.784 81.2413 145.347 88.8155 147.786C90.8583 148.444 91.8563 149.097 94.183 151.298L97.0412 154.002L97.1843 149.512C97.3428 144.54 97.744 143.56 100.247 142.032C104.858 139.219 106.055 136.706 105.656 130.68C105.224 124.153 103.991 119.021 101.276 112.45C96.647 101.244 92.7033 89.1397 91.1959 81.5102C90.9369 80.199 90.5821 79.0383 90.4076 78.9309C90.233 78.8235 88.1764 80.0391 85.8373 81.6322C73.6935 89.9034 59.7566 97.1015 50.4956 99.8854L47.7371 100.715L45.7255 104.329C38.0718 118.082 37.003 127.261 41.9275 136.945C44.6097 142.22 48.194 146.836 54.0203 152.521C59.499 157.866 59.5519 157.905 59.7885 156.765C59.9198 156.132 60.5073 154.799 61.094 153.802ZM64.6275 106.531C64.052 105.898 63.8853 105.148 63.9097 103.299C63.9575 99.6835 65.9169 96.3853 68.017 96.3853C69.0256 96.3853 70.3833 97.4257 70.3583 98.1793C70.3519 98.3779 70.1659 98.2319 69.9453 97.8546C68.8683 96.0132 67.5027 98.1644 68.4712 100.177C69.2121 101.716 70.1187 101.592 70.4169 99.9117L70.6602 98.5403L70.712 99.8362C70.8519 103.337 68.5834 107.356 66.4678 107.356C65.8586 107.356 65.0462 106.992 64.6275 106.531ZM88.3156 105.36C86.6181 104.03 85.7159 101.835 85.7159 99.0349C85.7159 96.0941 86.4148 94.8181 88.0254 94.8181C90.797 94.8181 93.3312 100.57 92.0445 103.939C91.6011 105.101 90.5544 106.181 89.8723 106.181C89.5924 106.181 88.8918 105.811 88.3156 105.36ZM90.6865 98.5464C91.0201 97.6805 89.5415 95.4058 88.6449 95.4058C88.0647 95.4058 87.9063 95.6391 87.9888 96.372C88.2237 98.4586 90.1286 99.994 90.6865 98.5464ZM39.9061 94.7963C47.6515 93.3163 50.3284 92.5399 56.2032 90.0692C64.6155 86.5315 74.8513 80.4276 90.4596 69.6412C93.9165 67.2523 100.749 63.6531 105.032 61.9645C111.068 59.5853 116.728 59.09 118.436 60.7914C119.249 61.6008 119.406 63.8526 118.736 65.0987C118.196 66.103 116.065 66.9988 114.215 66.9988C112.049 66.9988 106.079 69.1346 101.455 71.564C99.1826 72.7578 97.261 73.7946 97.1846 73.868C97.0334 74.0134 98.8318 82.7347 99.5078 85.1341C99.9981 86.8744 99.5668 86.8904 107.947 84.8208C122.325 81.27 129.347 76.0678 132.918 66.3208L134.1 63.0959L130.601 59.464C126.1 54.7926 123.99 52.2615 115.113 40.8898C103.852 26.4631 97.08 19.4972 89.2572 14.2921C82.7641 9.97175 77.765 8.16685 70.0761 7.36675C62.2209 6.54934 54.7282 7.93039 47.3519 11.5552C41.9964 14.1871 36.6892 18.1554 33.5695 21.861C27.104 29.5404 18.4418 46.4082 9.89358 67.9645C6.12803 77.4602 6.16639 77.899 11.3454 84.5719C15.3708 89.7585 19.8504 93.0873 25.4566 95.0579C29.0307 96.3141 32.2695 96.2554 39.9061 94.7963Z" fill="black"/>
<path fill-rule="evenodd" clip-rule="evenodd" d="M65.0032 96.6831C64.0243 96.9928 62.7972 96.7935 61.9092 96.3877C61.023 95.9827 59.8465 96.2979 59.2816 97.0917C58.7166 97.8856 58.977 98.8574 59.8632 99.2624C61.2444 99.8936 63.6077 100.459 66.0251 99.6946C68.6524 98.8634 70.5934 96.7215 71.4242 93.2019C71.6334 92.3156 70.9681 91.5217 69.9381 91.4287C68.9082 91.3357 67.9036 91.9788 67.6944 92.8651C67.0329 95.6675 65.7721 96.4399 65.0032 96.6831Z" fill="black"/>
<path fill-rule="evenodd" clip-rule="evenodd" d="M91.1796 94.0456C92.1708 94.3166 93.3901 94.0692 94.2621 93.6288C95.1323 93.1893 96.3213 93.458 96.9179 94.2291C97.5145 95.0001 97.2926 95.9815 96.4224 96.421C95.0661 97.106 92.7251 97.7643 90.2772 97.095C87.6167 96.3676 85.5904 94.3035 84.6198 90.8191C84.3753 89.9417 85.0092 89.1223 86.0356 88.9889C87.0619 88.8554 88.0921 89.4586 88.3365 90.336C89.1093 93.1104 90.401 93.8327 91.1796 94.0456Z" fill="black"/>
<path d="M72 124C74.5926 122.491 81.0222 120.378 86 124" stroke="black" stroke-width="4" stroke-linecap="round"/>
<path d="M68.5 111.5C68.5 112.328 67.8284 113 67 113C66.1716 113 65.5 112.328 65.5 111.5C65.5 111.318 65.5668 111.03 65.7079 110.669C65.8447 110.319 66.0349 109.941 66.2424 109.591C66.4508 109.24 66.668 108.933 66.8534 108.72C66.9093 108.656 66.9585 108.605 67 108.566C67.0415 108.605 67.0907 108.656 67.1466 108.72C67.332 108.933 67.5492 109.24 67.7576 109.591C67.9651 109.941 68.1553 110.319 68.2921 110.669C68.4332 111.03 68.5 111.318 68.5 111.5ZM67.1112 108.478C67.1112 108.478 67.109 108.479 67.1049 108.481C67.1092 108.478 67.1112 108.478 67.1112 108.478ZM66.8951 108.481C66.891 108.479 66.8888 108.478 66.8888 108.478C66.8888 108.478 66.8908 108.478 66.8951 108.481Z" stroke="black"/>
</svg>
