<svg width="259" height="213" viewBox="0 0 259 213" fill="none" xmlns="http://www.w3.org/2000/svg">
<path d="M112.189 164.996C110.602 164.316 100.062 154.151 97.1952 150.537C86.2305 136.712 84.0611 125.133 89.7078 110.573C90.4471 108.667 91.5259 106.176 92.1051 105.038C92.6842 103.9 93.0714 102.882 92.9655 102.776C92.8595 102.671 91.53 102.777 90.0109 103.011C86.0821 103.618 84.2149 103.546 80.6753 102.651C72.0244 100.461 64.1159 94.4985 58.0136 85.564C55.9068 82.4793 54.7923 78.5765 55.0321 75.123C55.199 72.7192 55.7388 71.0381 58.5845 64.0603C66.9622 43.5173 72.789 31.7664 79.4688 21.943C84.5491 14.4719 91.2993 8.77364 99.905 4.69158C106.901 1.37308 113.086 -0.004309 120.972 1.01239e-05C134.524 0.00645658 145.049 4.38625 156.502 14.7817C163.56 21.1881 167.969 26.2193 178.911 40.3552C184.523 47.6044 187.989 51.6657 192.192 55.9177C196.707 60.4839 197.014 61.3057 195.83 65.6589C193.998 72.3967 189.838 78.8958 184.705 83.0392C179.883 86.9318 171.287 90.5118 161.964 92.5108C159.691 92.998 157.659 93.5447 157.448 93.7256C157.203 93.9354 157.325 94.7955 157.784 96.1016C159.409 100.723 161.398 105.898 163.54 111.079C166.668 118.645 167.638 123.538 167.656 131.845C167.668 137.829 167.621 138.216 166.622 140.338C165.461 142.805 162.967 145.707 160.932 146.96C159.695 147.721 159.604 147.919 159.617 149.803C159.624 150.917 159.884 152.269 160.193 152.807C161.574 155.213 160.434 159.21 158.01 160.457C156.505 161.233 150.137 161.249 148.664 160.483C148.08 160.179 146.674 158.95 145.541 157.753C144.407 156.556 142.949 155.303 142.3 154.969C140.553 154.069 133.447 152.718 130.289 152.686C127.069 152.652 125.63 153.264 123.838 155.429C122.733 156.764 122.649 157.064 122.865 158.895C123.131 161.145 122.595 162.549 120.852 164.172C119.918 165.041 119.415 165.162 116.388 165.243C114.511 165.294 112.622 165.181 112.189 164.996ZM116.094 153.802C117.622 151.206 121.306 147.635 123.6 146.527C127.206 144.784 136.241 145.347 143.815 147.786C145.858 148.444 146.856 149.097 149.183 151.298L152.041 154.002L152.184 149.512C152.343 144.54 152.744 143.56 155.247 142.032C159.858 139.219 161.055 136.706 160.656 130.68C160.224 124.153 158.991 119.021 156.276 112.45C151.647 101.244 147.703 89.1397 146.196 81.5102C145.937 80.199 145.582 79.0383 145.408 78.9309C145.233 78.8235 143.176 80.0391 140.837 81.6322C128.693 89.9034 114.757 97.1015 105.496 99.8854L102.737 100.715L100.726 104.329C93.0718 118.082 92.003 127.261 96.9275 136.945C99.6097 142.22 103.194 146.836 109.02 152.521C114.499 157.866 114.552 157.905 114.788 156.765C114.92 156.132 115.507 154.799 116.094 153.802ZM119.628 106.531C119.052 105.898 118.885 105.148 118.91 103.299C118.957 99.6835 120.917 96.3853 123.017 96.3853C124.026 96.3853 125.383 97.4257 125.358 98.1793C125.352 98.3779 125.166 98.2319 124.945 97.8546C123.868 96.0132 122.503 98.1644 123.471 100.177C124.212 101.716 125.119 101.592 125.417 99.9117L125.66 98.5403L125.712 99.8362C125.852 103.337 123.583 107.356 121.468 107.356C120.859 107.356 120.046 106.992 119.628 106.531ZM143.316 105.36C141.618 104.03 140.716 101.835 140.716 99.0349C140.716 96.0941 141.415 94.8181 143.025 94.8181C145.797 94.8181 148.331 100.57 147.044 103.939C146.601 105.101 145.554 106.181 144.872 106.181C144.592 106.181 143.892 105.811 143.316 105.36ZM145.686 98.5464C146.02 97.6805 144.541 95.4058 143.645 95.4058C143.065 95.4058 142.906 95.6391 142.989 96.372C143.224 98.4586 145.129 99.994 145.686 98.5464ZM94.9061 94.7963C102.651 93.3163 105.328 92.5399 111.203 90.0692C119.616 86.5315 129.851 80.4276 145.46 69.6412C148.917 67.2523 155.749 63.6531 160.032 61.9645C166.068 59.5853 171.728 59.09 173.436 60.7914C174.249 61.6008 174.406 63.8526 173.736 65.0987C173.196 66.103 171.065 66.9988 169.215 66.9988C167.049 66.9988 161.079 69.1346 156.455 71.564C154.183 72.7578 152.261 73.7946 152.185 73.868C152.033 74.0134 153.832 82.7347 154.508 85.1341C154.998 86.8744 154.567 86.8904 162.947 84.8208C177.325 81.27 184.347 76.0678 187.918 66.3208L189.1 63.0959L185.601 59.464C181.1 54.7926 178.99 52.2615 170.113 40.8898C158.852 26.4631 152.08 19.4972 144.257 14.2921C137.764 9.97175 132.765 8.16685 125.076 7.36675C117.221 6.54934 109.728 7.93039 102.352 11.5552C96.9964 14.1871 91.6892 18.1554 88.5695 21.861C82.104 29.5404 73.4418 46.4082 64.8936 67.9645C61.128 77.4602 61.1664 77.899 66.3454 84.5719C70.3708 89.7585 74.8504 93.0873 80.4566 95.0579C84.0307 96.3141 87.2695 96.2554 94.9061 94.7963Z" fill="black"/>
<path d="M128 117C133.5 119.5 137 118 139.5 117" stroke="black" stroke-width="4" stroke-linecap="round"/>
<path d="M248.5 175H127C124.5 174.833 119.6 176.7 120 185.5C120.4 194.3 120.167 201.167 120 203.5C119.679 208 119.3 210.9 106.5 210.5C93.7 210.1 65.5 210.333 53 210.5C50 210.5 45 210.3 45 203.5C45 196.7 45 162.333 45 150" stroke="black" stroke-width="3" stroke-linecap="round"/>
<path d="M1 160.651H64.5H109.5C119.199 160.651 126.8 155.151 126 125.151C126 121.059 126.724 118.995 128.5 118M141 137.652C141 137.652 141 137.5 141 130C141 123.087 141 119.622 139.388 118.074" stroke="#61B3A1" stroke-width="2" stroke-linecap="square"/>
<rect x="139" y="136" width="4" height="4.8" fill="#61B3A1"/>
<rect x="139" y="140.801" width="4" height="1.2" fill="#C8C8C8"/>
<rect x="245" y="171" width="11" height="8" fill="black"/>
<rect x="256" y="171" width="3" height="8" fill="#BDBDBD"/>
</svg>
