<svg width="145" height="184" viewBox="0 0 145 184" fill="none" xmlns="http://www.w3.org/2000/svg">
<path d="M59.1888 182.826C57.6025 182.146 47.0619 171.981 44.1952 168.367C33.2305 154.542 31.0611 142.963 36.7078 128.403C37.4471 126.497 38.5259 124.006 39.1051 122.868C39.6842 121.73 40.0714 120.712 39.9655 120.607C39.8595 120.501 38.53 120.607 37.0109 120.842C33.0821 121.449 31.2149 121.376 27.6753 120.481C19.0244 118.291 11.1159 112.329 5.01362 103.394C2.90678 100.309 1.7923 96.4066 2.0321 92.9531C2.19903 90.5493 2.73883 88.8682 5.58448 81.8904C13.9622 61.3474 19.789 49.5964 26.4688 39.7731C31.5491 32.302 38.2993 26.6037 46.905 22.5217C53.901 19.2032 60.086 17.8258 67.9721 17.8301C81.5238 17.8365 92.0488 22.2163 103.502 32.6118C110.56 39.0182 114.969 44.0494 125.911 58.1852C131.523 65.4344 134.989 69.4958 139.192 73.7478C143.707 78.3139 144.014 79.1358 142.83 83.4889C140.998 90.2268 136.838 96.7259 131.705 100.869C126.883 104.762 118.287 108.342 108.964 110.341C106.691 110.828 104.659 111.375 104.448 111.556C104.203 111.766 104.325 112.626 104.784 113.932C106.409 118.553 108.398 123.729 110.54 128.909C113.668 136.475 114.638 141.368 114.656 149.675C114.668 155.659 114.621 156.046 113.622 158.168C112.461 160.635 109.967 163.537 107.932 164.79C106.695 165.551 106.604 165.749 106.617 167.633C106.624 168.747 106.884 170.099 107.193 170.638C108.574 173.043 107.434 177.04 105.01 178.288C103.505 179.063 97.1368 179.079 95.6643 178.313C95.0799 178.009 93.6743 176.78 92.5409 175.583C91.4074 174.386 89.9489 173.133 89.2997 172.799C87.5527 171.899 80.4467 170.548 77.2888 170.516C74.0693 170.482 72.6304 171.094 70.838 173.259C69.7332 174.594 69.6489 174.894 69.8649 176.725C70.1305 178.975 69.5951 180.379 67.8515 182.002C66.9177 182.871 66.4152 182.992 63.3875 183.073C61.5111 183.124 59.6217 183.012 59.1888 182.826ZM63.094 171.632C64.6216 169.036 68.3058 165.465 70.5996 164.357C74.2061 162.614 83.2413 163.177 90.8155 165.616C92.8583 166.274 93.8563 166.927 96.183 169.128L99.0412 171.832L99.1843 167.342C99.3428 162.37 99.744 161.39 102.247 159.862C106.858 157.049 108.055 154.537 107.656 148.51C107.224 141.983 105.991 136.851 103.276 130.28C98.647 119.074 94.7033 106.97 93.1959 99.3403C92.9369 98.0291 92.5821 96.8684 92.4076 96.7609C92.233 96.6536 90.1764 97.8691 87.8373 99.4623C75.6935 107.733 61.7566 114.932 52.4956 117.716L49.7371 118.545L47.7255 122.159C40.0718 135.912 39.003 145.091 43.9275 154.775C46.6097 160.05 50.194 164.666 56.0203 170.351C61.499 175.696 61.5519 175.735 61.7885 174.595C61.9198 173.962 62.5073 172.629 63.094 171.632ZM66.6275 124.361C66.052 123.728 65.8853 122.978 65.9097 121.129C65.9575 117.514 67.9169 114.215 70.017 114.215C71.0256 114.215 72.3833 115.256 72.3583 116.009C72.3519 116.208 72.1659 116.062 71.9453 115.685C70.8683 113.843 69.5027 115.994 70.4712 118.007C71.2121 119.546 72.1187 119.423 72.4169 117.742L72.6602 116.37L72.712 117.666C72.8519 121.167 70.5834 125.186 68.4678 125.186C67.8586 125.186 67.0462 124.822 66.6275 124.361ZM90.3156 123.19C88.6181 121.861 87.7159 119.666 87.7159 116.865C87.7159 113.924 88.4148 112.648 90.0254 112.648C92.797 112.648 95.3312 118.4 94.0445 121.77C93.6011 122.931 92.5544 124.011 91.8723 124.011C91.5924 124.011 90.8918 123.642 90.3156 123.19ZM92.6865 116.376C93.0201 115.511 91.5415 113.236 90.6449 113.236C90.0647 113.236 89.9063 113.469 89.9888 114.202C90.2237 116.289 92.1286 117.824 92.6865 116.376ZM41.9061 112.626C49.6515 111.146 52.3284 110.37 58.2032 107.899C66.6155 104.362 76.8513 98.2577 92.4596 87.4713C95.9165 85.0823 102.749 81.4832 107.032 79.7946C113.068 77.4154 118.728 76.9201 120.436 78.6215C121.249 79.4309 121.406 81.6827 120.736 82.9287C120.196 83.933 118.065 84.8289 116.215 84.8289C114.049 84.8289 108.079 86.9647 103.455 89.3941C101.183 90.5879 99.261 91.6246 99.1846 91.6981C99.0334 91.8435 100.832 100.565 101.508 102.964C101.998 104.704 101.567 104.72 109.947 102.651C124.325 99.1001 131.347 93.8979 134.918 84.1509L136.1 80.926L132.601 77.294C128.1 72.6226 125.99 70.0916 117.113 58.7199C105.852 44.2931 99.08 37.3272 91.2572 32.1221C84.7641 27.8018 79.765 25.9969 72.0761 25.1968C64.2209 24.3794 56.7282 25.7605 49.3519 29.3853C43.9964 32.0171 38.6892 35.9855 35.5695 39.6911C29.104 47.3705 20.4418 64.2383 11.8936 85.7946C8.12803 95.2903 8.16639 95.7291 13.3454 102.402C17.3708 107.589 21.8504 110.917 27.4566 112.888C31.0307 114.144 34.2695 114.085 41.9061 112.626Z" fill="black"/>
<path d="M36.1208 120.859L37.9274 122.235L39.7627 120.859L42.0568 122.235L44.8097 119.826L47.5626 122.235L49.3692 120.859" stroke="white" stroke-width="3" stroke-linecap="round"/>
<path d="M95.3406 112.427L97.1472 113.803L98.9824 112.427L101.277 113.803L104.029 111.395L106.782 113.803L108.589 112.427" stroke="white" stroke-width="3" stroke-linecap="round"/>
<path d="M31.5075 118.019C39.9382 118.019 55.5954 118.019 80.2854 99.9531C85.7933 95.923 90.836 92.7045 95.3405 90.154L99.5559 108.384C104.775 108.183 117.14 106.577 124.848 101.759C134.483 95.7375 141.107 81.285 139.301 80.0804C137.494 78.8757 123.042 60.8103 118.224 55.3906C113.406 49.9708 98.9537 19.2588 62.2197 21.6675C32.8325 23.5946 12.2372 67.4345 5.6129 89.1136C1.39753 102.362 24.2811 118.019 31.5075 118.019Z" fill="white"/>
<path d="M118.224 81.285C115.039 81.4298 106.99 83.558 95.3405 90.154M95.3405 90.154C90.836 92.7045 85.7933 95.923 80.2854 99.9531C55.5954 118.019 39.9382 118.019 31.5075 118.019C24.2811 118.019 1.39753 102.362 5.6129 89.1136C12.2372 67.4345 32.8325 23.5946 62.2197 21.6675C98.9537 19.2588 113.406 49.9708 118.224 55.3906C123.042 60.8103 137.494 78.8757 139.301 80.0804C141.107 81.285 134.483 95.7375 124.848 101.759C117.14 106.577 104.775 108.183 99.5559 108.384L95.3405 90.154Z" stroke="white" stroke-width="9" stroke-linecap="round"/>
<path d="M117.534 62.7518C114.349 62.8966 106.3 65.0248 94.6503 71.6208M94.6503 71.6208C90.1458 74.1713 85.1031 77.3898 79.5952 81.4199C54.9052 99.4858 39.248 99.4858 30.8173 99.4858C23.5909 99.4858 0.70734 83.8287 4.92272 70.5804C11.547 48.9013 32.1423 5.06137 61.5295 3.13434C98.2635 0.725554 112.716 31.4376 117.534 36.8574C122.351 42.2771 136.804 60.3425 138.611 61.5472C140.417 62.7518 133.793 77.2043 124.158 83.2263C116.45 88.0438 104.085 89.6497 98.8657 89.8504L94.6503 71.6208Z" stroke="black" stroke-width="6" stroke-linecap="round"/>
<path d="M105.578 94.7389L102.825 92.3301L100.072 94.7389L97.7781 93.3624L95.9428 94.7389L94.1362 93.3624" stroke="white" stroke-width="3" stroke-linecap="round"/>
<path d="M41.1428 103.17L44.7847 100.589L47.0788 101.965L49.8317 99.5566L52.5846 101.965L54.3912 100.589" stroke="white" stroke-width="3" stroke-linecap="round"/>
<path fill-rule="evenodd" clip-rule="evenodd" d="M70.0296 106.842C70.8734 106.931 71.7168 107.584 72.2317 108.297C72.7456 109.008 73.7389 109.168 74.4503 108.654C75.1616 108.141 75.3218 107.147 74.8079 106.436C74.007 105.327 72.4491 103.903 70.3654 103.681C68.1007 103.441 65.8701 104.668 63.966 107.587C63.4864 108.322 63.6936 109.306 64.4286 109.786C65.1635 110.265 66.1481 110.058 66.6276 109.323C68.1438 106.999 69.3669 106.771 70.0296 106.842Z" fill="black"/>
<path fill-rule="evenodd" clip-rule="evenodd" d="M89.4459 104.626C88.6016 104.711 87.7549 105.36 87.2363 106.07C86.7188 106.779 85.7247 106.934 85.016 106.416C84.3072 105.899 84.1522 104.904 84.6698 104.196C85.4764 103.091 87.0416 101.675 89.1264 101.464C91.3923 101.235 93.6165 102.474 95.5056 105.402C95.9813 106.14 95.7692 107.123 95.0317 107.599C94.2943 108.075 93.3108 107.863 92.8351 107.125C91.3309 104.793 90.109 104.559 89.4459 104.626Z" fill="black"/>
<circle cx="81.5" cy="134.5" r="3.5" fill="black"/>
</svg>
