<svg width="118" height="174" viewBox="0 0 118 174" fill="none" xmlns="http://www.w3.org/2000/svg">
<path fill-rule="evenodd" clip-rule="evenodd" d="M35.0344 161.304C37.4146 164.305 46.1664 172.745 47.4835 173.31C47.8429 173.464 49.4116 173.557 50.9697 173.515C53.4835 173.447 53.9007 173.347 54.6761 172.625C56.1237 171.277 56.5683 170.112 56.3478 168.244C56.1684 166.724 56.2384 166.475 57.1557 165.366C58.644 163.568 59.8386 163.06 62.5117 163.088C65.1337 163.116 71.0338 164.237 72.4844 164.984C73.0234 165.262 74.2344 166.302 75.1755 167.296C76.1166 168.29 77.2836 169.31 77.7688 169.563C78.9915 170.199 84.2787 170.185 85.5289 169.541C87.541 168.505 88.4877 165.187 87.341 163.189C87.0842 162.742 86.869 161.619 86.8625 160.695C86.8518 159.13 86.9278 158.966 87.9548 158.334C89.6442 157.294 91.7147 154.885 92.6792 152.836C93.5087 151.074 93.5478 150.753 93.5373 145.785C93.5227 138.887 92.7175 134.825 90.12 128.542C88.3417 124.241 86.6904 119.944 85.341 116.107C84.9597 115.022 84.8587 114.308 85.0621 114.134C85.2374 113.984 86.9245 113.53 88.8112 113.126C96.5525 111.466 103.689 108.493 107.693 105.261C111.955 101.821 115.409 96.425 116.93 90.8306C117.913 87.2161 117.658 86.5338 113.91 82.7425C110.42 79.2122 107.542 75.84 102.883 69.8211C93.7975 58.0842 90.137 53.9068 84.2766 48.5876C74.7669 39.9563 66.028 36.3198 54.7762 36.3145C48.2285 36.3109 43.093 37.4545 37.2843 40.2098C30.139 43.5991 24.5344 48.3304 20.3163 54.5336C14.7701 62.6899 9.93211 72.4466 2.97617 89.5033C0.613449 95.2969 0.165251 96.6927 0.0266541 98.6886C-0.172452 101.556 0.752895 104.797 2.50219 107.358C7.5689 114.776 14.1352 119.727 21.318 121.545C24.2569 122.288 25.8073 122.348 29.0693 121.844C30.3306 121.649 31.4345 121.562 31.5225 121.649C31.6104 121.737 31.289 122.582 30.8081 123.526C30.3272 124.471 29.4315 126.54 28.8176 128.123C24.1292 140.211 25.9305 149.825 35.0344 161.304ZM56.9578 157.974C55.0532 158.895 51.9943 161.86 50.7259 164.015C50.2388 164.843 49.751 165.95 49.642 166.475C49.4455 167.422 49.4016 167.389 44.8527 162.951C40.0152 158.232 37.0391 154.398 34.8121 150.019C30.7233 141.978 31.6107 134.357 37.9656 122.938L39.6358 119.937L41.9261 119.249C44.7123 118.411 48.0081 117.092 51.5581 115.425C51.6287 115.609 51.742 115.781 51.8975 115.924C52.5122 116.489 53.4881 117.124 54.6499 117.355C53.7385 118.419 53.0887 120.199 53.0638 122.083C53.0436 123.618 53.1819 124.241 53.6598 124.767C54.0074 125.149 54.6819 125.452 55.1878 125.452C56.9443 125.452 58.8279 122.114 58.7117 119.208L58.6687 118.132L58.4666 119.27C58.219 120.666 57.4663 120.769 56.8512 119.49C56.4197 118.594 56.5461 117.665 56.8941 117.232C57.0888 117.168 57.2798 117.089 57.4665 116.996C57.6653 117.046 57.8761 117.222 58.0751 117.562C58.2583 117.876 58.4127 117.997 58.4181 117.832C58.4286 117.515 58.1444 117.137 57.7525 116.841C58.8653 116.182 59.8166 114.975 60.5248 113.182C60.7924 112.504 60.46 111.738 59.7823 111.47C59.6651 111.424 59.5453 111.395 59.4259 111.384C63.3925 109.184 67.4388 106.703 71.2701 104.093C73.2123 102.77 74.9199 101.761 75.0648 101.85C75.2097 101.939 75.5043 102.903 75.7194 103.992C75.9627 105.223 76.2824 106.595 76.6679 108.075C75.3851 106.731 73.9754 106.171 72.5457 106.316C70.8147 106.491 69.5151 107.667 68.8453 108.584C68.4156 109.172 68.5443 109.998 69.1328 110.427C69.7212 110.857 70.5466 110.728 70.9763 110.14C71.4069 109.55 72.1099 109.012 72.8109 108.941C73.3615 108.886 74.376 109.08 75.6249 111.016C76.0199 111.628 76.8365 111.805 77.4488 111.41C77.4908 111.382 77.5308 111.353 77.5687 111.322C79.1956 116.883 81.5146 123.449 84.089 129.681C86.3429 135.137 87.3666 139.398 87.7255 144.817C88.0569 149.821 87.0631 151.907 83.2347 154.243C81.1562 155.511 80.8231 156.325 80.6915 160.454L80.5726 164.181L78.1995 161.936C76.2677 160.109 75.439 159.567 73.7429 159.02C67.4541 156.995 59.9523 156.527 56.9578 157.974ZM58.122 112.098C56.7308 112.852 55.3537 113.568 54.0033 114.241C54.5096 114.603 55.1442 114.853 55.7166 114.798C56.2675 114.745 57.2243 114.355 58.0706 112.212C58.0861 112.173 58.1032 112.135 58.122 112.098ZM71.1693 118.542C71.1693 120.868 71.9184 122.69 73.3278 123.794C73.8063 124.169 74.388 124.476 74.6204 124.476C75.1867 124.476 76.0557 123.579 76.4239 122.615C77.4922 119.817 75.3881 115.041 73.0869 115.041C71.7496 115.041 71.1693 116.101 71.1693 118.542ZM73.6013 115.529C74.3457 115.529 75.5734 117.418 75.2964 118.137C74.8332 119.339 73.2516 118.064 73.0565 116.331C72.988 115.723 73.1196 115.529 73.6013 115.529ZM46.6651 111.098C41.7874 113.15 39.5647 113.794 33.1337 115.023C26.7932 116.235 24.104 116.283 21.1364 115.24C16.4817 113.604 12.7623 110.84 9.42001 106.534C5.11991 100.993 5.08807 100.629 8.21457 92.7449C15.3121 74.8469 22.5043 60.8416 27.8725 54.4655C30.4628 51.3888 34.8693 48.0939 39.316 45.9087C45.4404 42.899 51.6616 41.7523 58.1837 42.431C64.5678 43.0953 68.7185 44.5939 74.1096 48.1811C80.6049 52.5028 86.2273 58.2866 95.5775 70.265C102.948 79.7068 104.7 81.8083 108.437 85.687L111.342 88.7026L110.361 91.3802C107.396 99.4731 101.566 103.792 89.6279 106.741C89.3076 106.82 89.0027 106.895 88.7126 106.967L88.7047 106.969C84.4743 108.016 83.3776 108.287 82.963 107.874C82.8179 107.73 82.7564 107.501 82.6732 107.193C82.6568 107.132 82.6396 107.068 82.6206 107.001C82.0594 105.009 80.5662 97.7673 80.6917 97.6466C80.7551 97.5856 82.3507 96.7247 84.2374 95.7336C88.0769 93.7165 93.0336 91.9431 94.8322 91.9431C96.368 91.9431 98.1377 91.1993 98.5859 90.3654C99.1419 89.3308 99.0118 87.4612 98.337 86.7892C96.9183 85.3765 92.2192 85.7877 87.2077 87.7632C83.6511 89.1652 77.9782 92.1535 75.108 94.1371C62.1485 103.093 53.6498 108.161 46.6651 111.098ZM72.6352 130.21C71.3459 129.35 68.7284 129.255 65.8019 131.596C63.5024 133.436 61.0516 133.464 60.2886 133.311C59.5742 133.168 58.879 133.631 58.7358 134.345C58.5927 135.06 59.0558 135.755 59.7703 135.898C61.2062 136.186 64.4725 136.039 67.4503 133.657C68.6148 132.725 69.5502 132.402 70.1812 132.318C70.5 132.276 70.7479 132.293 70.9209 132.326C71.0827 132.358 71.1607 132.399 71.1709 132.405L71.1716 132.405C71.7779 132.809 72.597 132.645 73.0012 132.039C73.4053 131.433 73.2415 130.614 72.6352 130.21Z" fill="black"/>
<path d="M19.7225 13.1934C22.0753 13.1934 23.9554 13.809 25.3626 15.0404C26.7919 16.2718 27.5066 18.0089 27.5066 20.2518C27.5066 22.3187 26.8249 23.9349 25.4616 25.1003C24.1203 26.2437 22.3392 26.8264 20.1183 26.8484L19.9534 29.3222H15.0059L14.841 23.1873H16.82C18.5131 23.1873 19.7995 22.9784 20.679 22.5606C21.5806 22.1428 22.0313 21.3842 22.0313 20.2848C22.0313 19.5151 21.8224 18.9105 21.4047 18.4707C20.9869 18.0309 20.4042 17.811 19.6565 17.811C18.8649 17.811 18.2493 18.0419 17.8095 18.5037C17.3697 18.9434 17.1498 19.5481 17.1498 20.3177H11.8395C11.7955 18.9764 12.0704 17.767 12.6641 16.6896C13.2798 15.6121 14.1813 14.7656 15.3687 14.1499C16.5781 13.5122 18.0294 13.1934 19.7225 13.1934ZM17.5456 37.8978C16.5561 37.8978 15.7425 37.612 15.1049 37.0402C14.4892 36.4466 14.1813 35.7209 14.1813 34.8634C14.1813 33.9838 14.4892 33.2472 15.1049 32.6535C15.7425 32.0598 16.5561 31.7629 17.5456 31.7629C18.5131 31.7629 19.3047 32.0598 19.9204 32.6535C20.5581 33.2472 20.8769 33.9838 20.8769 34.8634C20.8769 35.7209 20.5581 36.4466 19.9204 37.0402C19.3047 37.612 18.5131 37.8978 17.5456 37.8978Z" fill="#61B3A1"/>
<path d="M54.025 0C56.3778 0 58.2578 0.615687 59.6651 1.84706C61.0944 3.07844 61.809 4.81556 61.809 7.05842C61.809 9.12537 61.1274 10.7415 59.7641 11.907C58.4228 13.0504 56.6417 13.6331 54.4208 13.6551L54.2559 16.1288H49.3084L49.1435 9.99393H51.1225C52.8156 9.99393 54.102 9.78503 54.9815 9.36724C55.8831 8.94946 56.3338 8.19084 56.3338 7.0914C56.3338 6.32179 56.1249 5.7171 55.7071 5.27732C55.2894 4.83754 54.7067 4.61766 53.959 4.61766C53.1674 4.61766 52.5517 4.84854 52.112 5.3103C51.6722 5.75008 51.4523 6.35477 51.4523 7.12438H46.142C46.098 5.78306 46.3729 4.57368 46.9666 3.49623C47.5823 2.41877 48.4838 1.5722 49.6712 0.956516C50.8806 0.318839 52.3319 0 54.025 0ZM51.8481 24.7045C50.8586 24.7045 50.045 24.4186 49.4073 23.8469C48.7917 23.2532 48.4838 22.5276 48.4838 21.67C48.4838 20.7904 48.7917 20.0538 49.4073 19.4601C50.045 18.8664 50.8586 18.5696 51.8481 18.5696C52.8156 18.5696 53.6072 18.8664 54.2229 19.4601C54.8606 20.0538 55.1794 20.7904 55.1794 21.67C55.1794 22.5276 54.8606 23.2532 54.2229 23.8469C53.6072 24.4186 52.8156 24.7045 51.8481 24.7045Z" fill="#61B3A1"/>
<path d="M88.3277 11.873C90.6805 11.873 92.5606 12.4887 93.9679 13.7201C95.3971 14.9515 96.1118 16.6886 96.1118 18.9315C96.1118 20.9984 95.4301 22.6146 94.0668 23.78C92.7255 24.9234 90.9444 25.5061 88.7235 25.5281L88.5586 28.0019H83.6111L83.4462 21.867H85.4252C87.1183 21.867 88.4047 21.6581 89.2842 21.2403C90.1858 20.8225 90.6366 20.0639 90.6366 18.9644C90.6366 18.1948 90.4277 17.5901 90.0099 17.1504C89.5921 16.7106 89.0094 16.4907 88.2618 16.4907C87.4702 16.4907 86.8545 16.7216 86.4147 17.1834C85.9749 17.6231 85.755 18.2278 85.755 18.9974H80.4447C80.4008 17.6561 80.6756 16.4467 81.2693 15.3693C81.885 14.2918 82.7865 13.4453 83.9739 12.8296C85.1833 12.1919 86.6346 11.873 88.3277 11.873ZM86.1508 36.5775C85.1613 36.5775 84.3478 36.2916 83.7101 35.7199C83.0944 35.1262 82.7865 34.4006 82.7865 33.543C82.7865 32.6635 83.0944 31.9269 83.7101 31.3332C84.3478 30.7395 85.1613 30.4426 86.1508 30.4426C87.1183 30.4426 87.9099 30.7395 88.5256 31.3332C89.1633 31.9269 89.4821 32.6635 89.4821 33.543C89.4821 34.4006 89.1633 35.1262 88.5256 35.7199C87.9099 36.2916 87.1183 36.5775 86.1508 36.5775Z" fill="#61B3A1"/>
</svg>
