<svg width="39" height="37" viewBox="0 0 39 37" fill="none" xmlns="http://www.w3.org/2000/svg">
<path d="M10.1097 36.9545C9.82929 36.8352 7.96594 35.0513 7.45917 34.4171C5.52087 31.991 5.13736 29.959 6.13557 27.404C6.26627 27.0695 6.45698 26.6324 6.55936 26.4326C6.66174 26.2329 6.73019 26.0543 6.71146 26.0358C6.69273 26.0173 6.45769 26.0359 6.18916 26.0771C5.49463 26.1836 5.16455 26.1709 4.53882 26.0137C3.00953 25.6296 1.6115 24.5832 0.532742 23.0153C0.160299 22.474 -0.0367169 21.7891 0.00567493 21.183C0.0351835 20.7612 0.130609 20.4662 0.633658 19.2417C2.11465 15.6367 3.1447 13.5746 4.32554 11.8507C5.22362 10.5396 6.41691 9.53965 7.9382 8.82331C9.17495 8.24096 10.2683 7.99924 11.6624 8C14.058 8.00113 15.9186 8.76972 17.9433 10.594C19.1911 11.7182 19.9705 12.6011 21.9048 15.0818C22.8967 16.3539 23.5095 17.0666 24.2526 17.8128C25.0507 18.6141 25.1049 18.7583 24.8957 19.5222C24.5718 20.7046 23.8364 21.8451 22.929 22.5722C22.0765 23.2553 20.557 23.8835 18.9088 24.2343C18.5071 24.3198 18.1479 24.4158 18.1106 24.4475C18.0673 24.4844 18.0888 24.6353 18.17 24.8645C18.4573 25.6755 18.8089 26.5837 19.1875 27.4927C19.7405 28.8205 19.9119 29.6792 19.9151 31.137C19.9173 32.187 19.909 32.2549 19.7323 32.6273C19.527 33.0603 19.0862 33.5696 18.7265 33.7893C18.5078 33.9229 18.4916 33.9577 18.4939 34.2883C18.4953 34.4837 18.5411 34.721 18.5958 34.8156C18.8399 35.2377 18.6384 35.939 18.21 36.158C17.9438 36.2941 16.8181 36.297 16.5578 36.1626C16.4545 36.1091 16.206 35.8935 16.0056 35.6835C15.8053 35.4734 15.5474 35.2535 15.4327 35.1949C15.1238 35.037 13.8676 34.7999 13.3094 34.7942C12.7403 34.7883 12.4859 34.8957 12.169 35.2757C11.9737 35.5099 11.9588 35.5626 11.997 35.8838C12.044 36.2787 11.9493 36.525 11.6411 36.8098C11.476 36.9624 11.3872 36.9835 10.852 36.9978C10.5202 37.0067 10.1862 36.987 10.1097 36.9545ZM10.8001 34.9901C11.0701 34.5346 11.7214 33.9079 12.1269 33.7134C12.7645 33.4075 14.3617 33.5063 15.7006 33.9344C16.0617 34.0499 16.2382 34.1645 16.6495 34.5507L17.1547 35.0251L17.18 34.2373C17.2081 33.3647 17.279 33.1928 17.7215 32.9247C18.5366 32.4309 18.7482 31.9901 18.6777 30.9325C18.6013 29.7871 18.3833 28.8865 17.9034 27.7334C17.0851 25.7669 16.3879 23.6428 16.1214 22.3039C16.0756 22.0738 16.0129 21.8701 15.9821 21.8513C15.9512 21.8324 15.5876 22.0457 15.1741 22.3253C13.0274 23.7768 10.5636 25.04 8.9265 25.5285L8.43887 25.674L8.08326 26.3083C6.73025 28.7218 6.54131 30.3325 7.41186 32.032C7.88601 32.9576 8.51964 33.7677 9.5496 34.7652C10.5181 35.7032 10.5275 35.7101 10.5693 35.51C10.5925 35.399 10.6964 35.165 10.8001 34.9901ZM13.4833 28.8619C13.4259 28.8412 13.2634 28.776 13.1222 28.7171C12.8496 28.6034 12.8497 28.6055 13.1099 28.2249C13.119 28.2116 13.2891 28.2541 13.4879 28.3193C13.8852 28.4498 14.2922 28.4314 14.7948 28.2602L15.095 28.158L15.1895 28.3754L15.284 28.5929L14.9923 28.725C14.7046 28.8553 13.714 28.9451 13.4833 28.8619ZM11.4247 26.6948C11.323 26.5836 11.2935 26.4519 11.2978 26.1275C11.3063 25.4931 11.6527 24.9143 12.0239 24.9143C12.2022 24.9143 12.4422 25.0968 12.4378 25.2291C12.4367 25.2639 12.4038 25.2383 12.3648 25.1721C12.1744 24.849 11.933 25.2265 12.1042 25.5796C12.2352 25.8497 12.3954 25.8281 12.4481 25.5331L12.4912 25.2924L12.5003 25.5199C12.5251 26.1342 12.124 26.8395 11.7501 26.8395C11.6423 26.8395 11.4987 26.7756 11.4247 26.6948ZM15.6122 26.4892C15.3122 26.2559 15.1527 25.8707 15.1527 25.3792C15.1527 24.8632 15.2762 24.6392 15.561 24.6392C16.0509 24.6392 16.4989 25.6485 16.2714 26.2399C16.193 26.4437 16.008 26.6332 15.8874 26.6332C15.838 26.6332 15.7141 26.5684 15.6122 26.4892ZM16.0314 25.2935C16.0904 25.1416 15.829 24.7424 15.6705 24.7424C15.5679 24.7424 15.5399 24.7833 15.5545 24.9119C15.596 25.2781 15.9327 25.5475 16.0314 25.2935ZM7.05451 24.6354C8.42373 24.3757 8.89695 24.2395 9.93549 23.8059C11.4226 23.1851 13.232 22.1139 15.9913 20.2211C16.6024 19.8018 17.8102 19.1702 18.5674 18.8739C19.6344 18.4564 20.6349 18.3695 20.9369 18.668C21.0806 18.8101 21.1083 19.2052 20.9899 19.4239C20.8945 19.6001 20.5177 19.7574 20.1907 19.7574C19.8078 19.7574 18.7525 20.1322 17.935 20.5585C17.5333 20.768 17.1936 20.9499 17.1801 20.9628C17.1534 20.9883 17.4713 22.5188 17.5908 22.9398C17.6775 23.2452 17.6012 23.248 19.0827 22.8849C21.6244 22.2618 22.8657 21.3488 23.497 19.6384L23.7059 19.0725L23.0873 18.4351C22.2917 17.6153 21.9186 17.1712 20.3494 15.1756C18.3587 12.6439 17.1616 11.4215 15.7787 10.5081C14.6309 9.7499 13.7471 9.43317 12.3879 9.29276C10.9993 9.14932 9.67473 9.39167 8.37077 10.0278C7.42403 10.4896 6.48585 11.186 5.93434 11.8363C4.7914 13.1839 3.2601 16.144 1.74897 19.9268C1.0833 21.5932 1.09008 21.6702 2.00562 22.8412C2.71721 23.7514 3.50912 24.3355 4.50016 24.6813C5.13198 24.9018 5.70454 24.8915 7.05451 24.6354Z" fill="black"/>
<path d="M30 1V3" stroke="black" stroke-miterlimit="10" stroke-linecap="round" stroke-linejoin="round"/>
<path d="M35.6667 3.33398L34.2667 4.73398" stroke="black" stroke-miterlimit="10" stroke-linecap="round" stroke-linejoin="round"/>
<path d="M38 9H36" stroke="black" stroke-miterlimit="10" stroke-linecap="round" stroke-linejoin="round"/>
<path d="M24.3334 3.33398L25.7334 4.73398" stroke="black" stroke-miterlimit="10" stroke-linecap="round" stroke-linejoin="round"/>
<path d="M22 9H24" stroke="black" stroke-miterlimit="10" stroke-linecap="round" stroke-linejoin="round"/>
<path d="M34 9C34 6.8 32.2 5 30 5C27.8 5 26 6.8 26 9C26 10.6 26.9333 12 28.3333 12.6V14C28.3333 14.7333 28.9333 15.3333 29.6667 15.3333H30.3333C31.0667 15.3333 31.6667 14.7333 31.6667 14V12.6C33.0667 12 34 10.6 34 9Z" stroke="black" stroke-miterlimit="10" stroke-linejoin="round"/>
<path d="M28.3334 12.666H31.6667" stroke="black" stroke-miterlimit="10" stroke-linejoin="round"/>
</svg>
