<svg height="512" viewBox="0 0 60 60" width="512" xmlns="http://www.w3.org/2000/svg"><g id="019---Languages" fill="none"><g id="Icons" transform="translate(1)"><path id="Shape" d="m44 3v38c-.0032948 1.1032019-.8967981 1.9967052-2 2-39 0-36.3-.041-37 .09v-42c.7-.132-2.124-.09 37-.09 1.1032019.0032948 1.9967052.89679813 2 2z" fill="#ffdc00"/><path id="Shape" d="m44 3v38c-.0032948 1.1032019-.8967981 1.9967052-2 2h-3c1.1032019-.0032948 1.9967052-.8967981 2-2v-38c-.0032948-1.10320187-.8967981-1.9967052-2-2h3c1.1032019.0032948 1.9967052.89679813 2 2z" fill="#fec108"/><path id="Shape" d="m58 41v4h-19.13c.3047186-.7048317.6835144-1.3752667 1.13-2h2c1.1032019-.0032948 1.9967052-.8967981 2-2z" fill="#f44335"/><path id="Shape" d="m44 49v4c-.0032948 1.1032019-.8967981 1.9967052-2 2h-2c-1.277882-1.7415508-1.9773751-3.8400302-2-6z" fill="#783e22"/><path id="Shape" d="m58 38v3h-14v-4h13c.5522847 0 1 .4477153 1 1z" fill="#37474f"/><path id="Shape" d="m55 38v3h-11v-4h10c.5522847 0 1 .4477153 1 1z" fill="#607d8b"/><path id="Rectangle-path" d="m48 5h5v12h-5z" fill="#ffe0b2"/><path id="Rectangle-path" d="m44 5h4v12h-4z" fill="#3f51b5"/><path id="Shape" d="m58 6v10c0 .5522847-.4477153 1-1 1h-4v-12h4c.5522847 0 1 .44771525 1 1z" fill="#f44335"/><path id="Shape" d="m58 22v10c.0303784.516358-.359179.9615665-.875 1h-13.125v-12h13.125c.515821.0384335.9053784.483642.875 1z" fill="#dfc49c"/><path id="Shape" d="m55 22v10c.0370585.507995-.3388866.9523745-.846 1h-10.154v-12h10.154c.5071134.0476255.8830585.492005.846 1z" fill="#ffe0b2"/><circle id="Oval" cx="51" cy="27" fill="#f44335" r="2"/><path id="Shape" d="m5 1.09v42c-2.88460406.4875855-4.99703532 2.9844793-5.00000048 5.91l.00000048-42c-.00116188-2.92703285 2.11322107-5.42623349 5-5.91z" fill="#f44335"/><path id="Shape" d="m40 55c-35.98 0-33.976.031-34.57-.06-2.81159494-.2673302-5.05382005-2.4634711-5.37947278-5.268909-.32565272-2.8054379 1.35387712-5.4568126 4.02947278-6.361091 1.282-.442-.046-.31 35.92-.31-2.6666667 3.5555556-2.6666667 8.4444444 0 12z" fill="#dfc49c"/><path id="Shape" d="m37 55c-33.291 0-30.993.028-31.57-.06-2.81159494-.2673302-5.05382005-2.4634711-5.37947278-5.268909-.32565272-2.8054379 1.35387712-5.4568126 4.02947278-6.361091 1.361-.469.8-.31 32.92-.31-2.6666667 3.5555556-2.6666667 8.4444444 0 12z" fill="#ffe0b2"/><path id="Shape" d="m36.94 23.75c-.9878968 2.3323561-2.6090882 4.3415249-4.68 5.8-2.3244298-.7627486-4.8110787-.887081-7.2-.36-1.5576044.4163839-2.9871845 1.2136498-4.16 2.32-1.2675068-.3482358-2.4770567-.8805726-3.59-1.58.2044166-.6647164.3614766-1.3430817.47-2.03.0352388-.9974146-.0554773-1.995291-.27-2.97-.23-2.06 1.19-3.66 1.36-5.65.189-2.158-2.581-1.919-4.15-2.56-1.4190483-.6890017-2.3962052-2.0457465-2.6-3.61.5747374-1.3199608 1.3580786-2.5388666 2.32-3.61 2.061186.02234665 4.1170948-.21280632 6.12-.7 2.1297358-.39097906 3.9335745-1.79894425 4.83-3.77 1.7738278.11516993 3.5072325.58081 5.1 1.37v.01l-.01.01c-1.120374 1.32247431-2.5539332 2.34349847-4.17 2.97-3.473 1.612-3.508 5.2.44 6.07 1.83.41 3.47 1.43 3.48 3.49 0 2.126-1.417 3.8-1.45 5.52-.0151949.6004742.2515034 1.1734562.7207366 1.5484501.4692331.3749938 1.0869204.5087803 1.6692634.3615499 2.114-.292 3.116-2.052 5.77-2.63z" fill="#00bcd4"/><path id="Shape" d="m17.51 24.93c.212 1.909.658 2.157-.2 4.99-5.6448223-3.5520561-7.84983676-10.6939237-5.19-16.81.2037948 1.5642535 1.1809517 2.9209983 2.6 3.61 1.568.64 4.339.4 4.15 2.56-.17 1.99-1.59 3.59-1.36 5.65z" fill="#60a917"/><g fill="#549414"><path id="Shape" d="m25.39 5.03c-.8964255 1.97105575-2.7002642 3.37902094-4.83 3.77-2.0029052.48719368-4.058814.72234665-6.12.7 2.7648858-3.0995773 6.8058433-4.74917364 10.95-4.47z"/><path id="Shape" d="m32.26 29.54v.01c-3.3027343 2.3199811-7.4708012 3.0391194-11.36 1.96 1.1728155-1.1063502 2.6023956-1.9036161 4.16-2.32 2.3885412-.5242559 4.8735698-.4034559 7.2.35z"/><path id="Shape" d="m38 18.5c.0002202 1.8031687-.3601806 3.5881726-1.06 5.25-1.1513491.2947492-2.2369198.8036105-3.2 1.5-2.718 2.036-5.016 1.113-4.96-.78.033-1.727 1.45-3.388 1.45-5.52-.01-2.06-1.65-3.08-3.48-3.49-3.95-.871-3.915-4.46-.44-6.07 1.1104942-.4606651 2.1480341-1.08049415 3.08-1.84.4009164-.34539315.7691409-.72700763 1.1-1.14 4.5792782 2.29533816 7.4816543 6.9677385 7.51 12.09z"/></g><path id="Shape" d="m17 49v9c-.0010489.3465932-.1814922.6679286-.4768822.8492369-.2953899.1813084-.6635996.1967323-.9731178.0407631l-2.1-1.05c-.2836743-.1399671-.6163257-.1399671-.9 0l-2.1 1.05c-.291391.149153-.63757048.145115-.92540307-.0107943-.28783259-.1559094-.48033563-.4436577-.51459693-.7692057-.033-.1-.01-.9-.01-9.11z" fill="#f44335"/><path id="Shape" d="m14 49c0 10.008.008 8.9-.014 9.108l1.564.782c.3095182.1559692.6777279.1405453.9731178-.0407631.29539-.1813083.4758333-.5026437.4768822-.8492369v-9z" fill="#c81e1e"/><path id="Shape" d="m58 45v3c0 .5522847-.4477153 1-1 1h-19.0000002c-.0002932-1.3803046.296422-2.7445125.8700002-4z" fill="#fec108"/><path id="Shape" d="m55 45v3c0 .5522847-.4477153 1-1 1h-16.0000002c-.0002932-1.3803046.296422-2.7445125.8700002-4z" fill="#ffdc00"/><path id="Rectangle-path" d="m55 41h3v4h-3z" fill="#c81e1e"/></g><g id="Outline" fill="#000"><path id="Shape" d="m0 7v42c.00440864 3.8641657 3.13583434 6.9955914 7 7h2v2c-.00067494.6946105.35910055 1.3398284.95036342 1.7043725.59126288.3645442 1.32932948.3962027 1.94963658.0836275l2.1-1.053 2.105 1.053c.6198891.3101928 1.3561942.2772933 1.9459483-.0869486.5897541-.364242.9488549-1.0078833.9490517-1.7010514v-2h24c1.6568542 0 3-1.3431458 3-3v-3h12c1.1045695 0 2-.8954305 2-2v-10c0-1.1045695-.8954305-2-2-2h-12v-2h12c1.1045695 0 2-.8954305 2-2v-10c0-1.1045695-.8954305-2-2-2h-12v-2h12c1.1045695 0 2-.8954305 2-2v-10c0-1.1045695-.8954305-2-2-2h-12v-1c0-1.65685425-1.3431458-3-3-3h-36c-3.86416566.00440864-6.99559136 3.13583434-7 7zm2 0c.00261225-1.98572356 1.18005197-3.78171161 3-4.576v39.865c-1.14146312.3355123-2.17555999.9632091-3 1.821zm12.9 49.946c-.5638101-.2800314-1.2261899-.2800314-1.79 0l-2.11 1.054v-8h6v8zm4.1-6.946h4c.5522847 0 1-.4477153 1-1s-.4477153-1-1-1h-17c-.55228475 0-1 .4477153-1 1s.44771525 1 1 1h3v4h-2c-2.76142375 0-5-2.2385763-5-5s2.23857625-5 5-5h32.23c-1.6395881 3.1317146-1.6395881 6.8682854 0 10h-20.23zm26.816-8h12.184v2h-15c1.2667854-.0052514 2.3937454-.8056491 2.816-2zm-1.816 11c0 .5522847-.4477153 1-1 1h-1.461c-.791802-1.2031707-1.2983487-2.5712913-1.481-4h3.942zm-3.942-5c.0813598-.6832203.2428024-1.3544992.481-2h17.461v2zm17.942-10v2h-12v-2zm0-16v10h-12v-10zm-8-6v-10h3v10zm8 0h-3v-10h3zm-10-10v10h-2v-10zm-4-3v38c0 .5522847-.4477153 1-1 1h-36v-40h36c.5522847 0 1 .44771525 1 1z"/><path id="Shape" d="m52 30c1.6568542 0 3-1.3431458 3-3s-1.3431458-3-3-3-3 1.3431458-3 3 1.3431458 3 3 3zm0-4c.5522847 0 1 .4477153 1 1s-.4477153 1-1 1-1-.4477153-1-1 .4477153-1 1-1z"/><path id="Shape" d="m17.654 30.675c.0199309.0138297.0406309.0265168.062.038 6.4730071 4.1292817 15.0435945 2.4895651 19.5352421-3.7374639 4.4916475-6.227029 3.343284-14.8771678-2.6175055-19.71656625-5.9607895-4.83939841-14.6623338-4.18612455-19.8337366 1.48903015-.0504457.04474712-.0960312.09469005-.136.149-2.8140692 3.1571309-4.1035333 7.388735-3.5282784 11.5786686.5752549 4.1899335 2.9574609 7.9174375 6.5182784 10.1993314zm-4.4-14.7c.5221253.7407349 1.2422712 1.3194855 2.078 1.67 1.63.676 3.625.469 3.537 1.551-.1047003.7472285-.3158425 1.4756183-.627 2.163-.914 2.337-.863 3.046-.587 4.634.2092518.7380778.2233789 1.5178268.041 2.263-3.6768722-2.9309905-5.3927631-7.6808148-4.438-12.285zm11.1 14.971c1.8794309-.972847 4.0220438-1.3150479 6.111-.976-1.9210845.8375824-4.0238381 1.1720957-6.11.972zm8.687-2.5c-2.3506923-.6768143-4.8332971-.7551906-7.222-.228-1.5282755.4027599-2.9447578 1.1482769-4.142 2.18-.7622539-.2458142-1.4990031-.5646256-2.2-.952.4031-1.2277426.457109-2.5433478.156-3.8-.22-1.275-.287-1.609.479-3.564.3856144-.8655126.6404-1.7835495.756-2.724.1124021-1.1643523-.5556903-2.2635903-1.641-2.7-2.074-.908-4.2-.127-5.044-3.423.4563521-.9846478 1.0389111-1.9057164 1.733-2.74 1.985668-.0102085 3.9632475-.2538818 5.892-.726 2.1658726-.43162447 4.0449819-1.76620674 5.166-3.669.950063.1136881 1.8836728.33752627 2.782.667-.863379.70799463-1.8255332 1.28609566-2.856 1.716-1.5299243.62193027-2.678206 1.9272673-3.1 3.524-.425 2.378 1.64 3.964 3.737 4.431 5.177 1.149 1.3 5.258 1.242 8.011-.0299895.8038318.2811048 1.5829055.8565226 2.1449902.5754179.5620848 1.3615693.8548325 2.1644774.8060098 1.3701886-.1014983 2.6762681-.6208586 3.742-1.488-.7091891.9584515-1.5509304 1.8113038-2.5 2.533zm-14.824-20.085c1.8541193-1.33903466 4.0424494-2.13919586 6.323-2.312-1.527 1.631-3.931 2.063-6.323 2.312zm18.959 14.563c-2.556.769-3.468 2.245-5.135 2.459-.3602989.0698261-.7333262-.0158939-1.027-.236-.975-.876 1.213-3.466 1.213-6.2-.007-2.236-1.56-3.862-4.259-4.461-.1-.022-2.481-.571-2.2-2.125.3122332-.9446401 1.0315313-1.6995362 1.96-2.057 1.4900497-.60672468 2.8451358-1.5026381 3.987-2.636 5.3337519 3.0425446 7.6523324 9.5197949 5.461 15.256z"/><path id="Shape" d="m34 35h-17c-.5522847 0-1 .4477153-1 1s.4477153 1 1 1h17c.5522847 0 1-.4477153 1-1s-.4477153-1-1-1z"/></g></g></svg>