<svg id="filled_outline" enable-background="new 0 0 512 512" height="512" viewBox="0 0 512 512" width="512" xmlns="http://www.w3.org/2000/svg"><path d="m216 208v120c0-1.0400391-.0800781-2-.2402344-2.9599609-1.3598633-6.800293-6.9599609-12.0800781-13.9199219-12.9599609-.5600585-.0800782-1.199707-.0800782-1.8398437-.0800782h-16v56l32 32v48h-160v-40l32-32v-40h-16c-8.7998047 0-16 7.199707-16 16v-144h40v16h80v-16z" fill="#f98800"/><path d="m216 208-160 240h160z" fill="#f05a29"/><path d="m504 464v40h-48l16-16-8-24h16l8-8z" fill="#acdd12"/><path d="m456 504s-48-.0800781-48 0v-40l16-8 8 8h16l-8 24z" fill="#acdd12"/><path d="m472 488-16 16-16-16 8-24h16z" fill="#387f29"/><path d="m472 112h-32l-32 8v40h96v-40z" fill="#aedef8"/><path d="m472 48-24 24-16-8h-16v8.0000153c0 8.8365478 7.1634521 15.9999847 15.9999695 15.9999847h.0000305v8l8 16h32l8-16v-8h.0000305c8.8365174 0 15.9999695-7.1634369 15.9999695-15.9999847v-8.0000153h-24z" fill="#fac8b2"/><path d="m456 112-16 32 16 16 16-16z" fill="#00587e"/><path d="m432 64h-24v-40l32-16 32 8 16-8 16 16v40h-8-24v-16l-24 24z" fill="#58492f"/><path d="m456 344s48-.0800781 48 0v-40l-24-8-8 8h-8l8 24z" fill="#fcd4ef"/><path d="m440 328 16 16 16-16-8-24h-16z" fill="#f249b4"/><path d="m408 304v40h48l-16-16 8-24h-8l-8-8z" fill="#fcd4ef"/><path d="m480 272v24l-8 8h-32l-8-8v-24h8c4.3999023 0 8.3999023-1.7602539 11.2797852-4.7202148 2.9604492-2.8798829 4.7202148-6.8798829 4.7202148-11.2797852 0 8.7998047 7.2001953 16 16 16z" fill="#fac8b2"/><path d="m496 264c0 11.0400391-4.4799805 21.0400391-11.6801758 28.3198242-1.3598633 1.3598633-2.7998047 2.5600586-4.3198242 3.6801758v-24h-8c-8.7998047 0-16-7.2001953-16-16 0 4.3999023-1.7597656 8.3999023-4.7202148 11.2797852-2.8798829 2.9599609-6.8798829 4.7202148-11.2797852 4.7202148h-8v24c-1.5200195-1.1201172-2.9599609-2.3203125-4.3198242-3.6801758-7.2001953-7.2797851-11.6801758-17.2797851-11.6801758-28.3198242 0-14.800293 8-27.6801758 20-34.6401367 5.8398438-3.4399414 12.7202148-5.3598633 20-5.3598633s14.1601563 1.9199219 20 5.3598633c3.0400391 1.7602539 5.8398438 3.8398438 8.3198242 6.3198242 7.2001953 7.2802734 11.6801758 17.2802734 11.6801758 28.3203125z" fill="#b71e71"/><path d="m480 216c0 4.9599609-1.5200195 9.5200195-4 13.3598633-5.8398437-3.4399414-12.7202148-5.3598633-20-5.3598633s-14.1601563 1.9199219-20 5.3598633c-2.4799805-3.8398438-4-8.3999023-4-13.3598633 0-13.2802734 10.7202148-24 24-24s24 10.7197266 24 24z" fill="#931d5b"/><path d="m488 392v24l-64-16v-8c0-8.800293 7.2001953-16 16-16h32c8.7998047 0 16 7.199707 16 16z" fill="#f05a29"/><path d="m504 428c0 6.6396484-5.3598633 12-12 12h-4v16l-8 8h-48l-8-8v-16h-4c-6.6401367 0-12-5.3603516-12-12 0-6.6401367 5.3598633-12 12-12h4v-16l64 16h4c6.6401367 0 12 5.3598633 12 12z" fill="#fac8b2"/><path d="m176 208v16h-80v-16c0-8.800293 7.2001953-16 16-16h8v-8c0-8.800293 7.2001953-16 16-16 4.3999023 0 8.3999023 1.7597656 11.2797852 4.7197266 2.9604492 2.8803711 4.7202148 6.8803711 4.7202148 11.2802734v8h8c8.7998047 0 16 7.199707 16 16z" fill="#ffec00"/><path d="m88 256h32v32h-32z" fill="#fff"/><path d="m88 320h32v32h-32z" fill="#fff"/><path d="m88 384h32v32h-32z" fill="#fff"/><path d="m88 336v40l-32 32h-48v-80l24-24h24v48c0-8.800293 7.2001953-16 16-16z" fill="#fac8b2"/><path d="m264 328v42.159668l-48-44.7998047v-21.3598633h24z" fill="#fac8b2"/><path d="m262.8798828 400h-46.8798828l-32-32v-56h16c.6401367 0 1.2797852 0 1.8398438.0800781 6.9599609.8798828 12.5600586 6.159668 13.9199219 12.9599609.1601562.959961.2402343 1.9199219.2402343 2.959961v28.2397461z" fill="#fac8b2"/><path d="m201.8398438 312.0800781c-.5600586-.0800781-1.1997071-.0800781-1.8398438-.0800781h-16v14.3999023l-24-22.3999023v-16h16z" fill="#00a8e7"/><path d="m296 400-16 16-17.1201172-16-46.8798828-43.7602539v-30.8798828l48 44.7998047z" fill="#00a8e7"/><path d="m216 400h48v104h-48z" fill="#00587e"/><path d="m8 408h48v96h-48z" fill="#00587e"/><path d="m184 264h-32c-4.4179688 0-8-3.5820313-8-8s3.5820313-8 8-8h32c4.4179688 0 8 3.5820313 8 8s-3.5820312 8-8 8z" fill="#f05a29"/><path d="m160 352h-8c-4.4179688 0-8-3.5820313-8-8s3.5820313-8 8-8h8c4.4179688 0 8 3.5820313 8 8s-3.5820312 8-8 8z" fill="#f98800"/><path d="m184 424h-32c-4.4179688 0-8-3.5820313-8-8s3.5820313-8 8-8h32c4.4179688 0 8 3.5820313 8 8s-3.5820312 8-8 8z" fill="#f98800"/><circle cx="136" cy="72" fill="#ffec00" r="64"/><path d="m200 72c0 35.3500977-28.6499023 64-64 64-23.8400879 0-44.6298828-13.0300293-55.6401367-32.3598633 9.3300781 5.3198242 20.1301269 8.3598633 31.6401367 8.3598633 35.3500977 0 64-28.6499023 64-64 0-11.5100098-3.0400391-22.3100586-8.3598633-31.6401367 19.329834 11.0102539 32.3598633 31.8000488 32.3598633 55.6401367z" fill="#fcc200"/><g fill="#e22526"><path d="m152 80h-16c-4.4179688 0-8-3.5820313-8-8v-32c0-4.4179688 3.5820313-8 8-8s8 3.5820313 8 8v24h8c4.4179688 0 8 3.5820313 8 8s-3.5820312 8-8 8z"/><path d="m365.6572266 226.3427734c-3.125-3.1230469-8.1894531-3.1230469-11.3144531 0-3.1240234 3.125-3.1240234 8.1894531 0 11.3144531l10.3432617 10.3427735h-108.6860352c-4.4179688 0-8 3.5820313-8 8s3.5820313 8 8 8h108.6860352l-10.3432617 10.3427734c-3.1240234 3.125-3.1240234 8.1894531 0 11.3144531 1.5624999 1.5615235 3.6093749 2.3427735 5.6572265 2.3427735s4.0947266-.78125 5.6572266-2.3427734l24-24c3.1240234-3.125 3.1240234-8.1894531 0-11.3144531z"/><path d="m256 224h40c22.0556641 0 40-17.9443359 40-40v-56c0-13.2333984 10.7666016-24 24-24h4.6860352l-10.3432617 10.3427734c-3.1240234 3.125-3.1240234 8.1894531 0 11.3144531 1.5624999 1.5615235 3.6093749 2.3427735 5.6572265 2.3427735s4.0947266-.78125 5.6572266-2.3427734l24-24c3.1240234-3.125 3.1240234-8.1894531 0-11.3144531l-24-24c-3.125-3.1230469-8.1894531-3.1230469-11.3144531 0-3.1240234 3.125-3.1240234 8.1894531 0 11.3144531l10.3432617 10.3427734h-4.6860352c-22.0556641 0-40 17.9443359-40 40v56c0 13.2333984-10.7666016 24-24 24h-40c-4.4179688 0-8 3.5820313-8 8s3.5820313 8 8 8z"/><path d="m365.6572266 386.3427734c-3.125-3.1230469-8.1894531-3.1230469-11.3144531 0-3.1240234 3.125-3.1240234 8.1894531 0 11.3144531l10.3432617 10.3427735h-4.6860352c-13.2333984 0-24-10.7666016-24-24v-56c0-22.0556641-17.9443359-40-40-40h-40c-4.4179688 0-8 3.5820313-8 8s3.5820313 8 8 8h40c13.2333984 0 24 10.7666016 24 24v56c0 22.0556641 17.9443359 40 40 40h4.6860352l-10.3432617 10.3427734c-3.1240234 3.125-3.1240234 8.1894531 0 11.3144531 1.5624999 1.5615235 3.6093749 2.3427735 5.6572265 2.3427735s4.0947266-.78125 5.6572266-2.3427734l24-24c3.1240234-3.125 3.1240234-8.1894531 0-11.3144531z"/></g><path d="m488 96v-1.3710938c9.3125-3.3017578 16-12.1992187 16-22.6289062 4.4179688 0 8-3.5820313 8-8v-40c0-2.1220703-.8427734-4.15625-2.3427734-5.6572266l-16-16c-2.4345703-2.4355469-6.15625-3.0371094-9.2353516-1.4980469l-13.3525391 6.6767578-29.1289063-7.2822266c-1.8554688-.4648438-3.8105469-.2490234-5.5185547.6054688l-32 16c-2.7099608 1.3554688-4.4218749 4.1250001-4.4218749 7.1552735v40c0 4.4179688 3.5820313 8 8 8 0 10.4296875 6.6875 19.3271484 16 22.6289063v1.3710937c0 1.2421875.2890625 2.4667969.8447266 3.578125l3.5400391 7.079834-22.3251953 5.5812988c-3.5615235.8896485-6.0595704 4.0898438-6.0595704 7.7607422v40c0 4.4179688 3.5820313 8 8 8h96c4.4179688 0 8-3.5820313 8-8v-40c0-3.6708984-2.4980469-6.8710938-6.0595703-7.7607422l-22.3251953-5.5812988 3.5400391-7.079834c.555664-1.1113281.8447265-2.3359375.8447265-3.578125zm-72-67.0556641 24.9306641-12.4658203 29.1289063 7.2822266c1.8535156.4638672 3.8095703.2480469 5.5185547-.6054688l10.8417969-5.4208984 9.580078 9.5791016v28.6865234h-16v-8c0-3.2353516-1.9492188-6.1523438-4.9384766-7.390625-2.9912109-1.2392578-6.4296875-.5546875-8.71875 1.7333984l-19.9228515 19.9228516-10.8417969-5.4208984c-1.1113281-.5556641-2.3359375-.8447266-3.578125-.8447266h-16zm40 119.7421875-6.265625-6.2666016 6.265625-12.5312499 6.265625 12.53125zm-40-22.4404296 24.984375-6.2460938h2.0712891l-10.2109375 20.421875c-1.5400391 3.0800781-.9365234 6.7998047 1.4980469 9.2353516l2.3427734 2.3427734h-20.6855469zm80 25.7539062h-20.6855469l2.3427734-2.3427734c2.4345703-2.4355469 3.0380859-6.1552734 1.4980469-9.2353516l-10.2109375-20.421875h2.0712891l24.984375 6.2460938zm-16-72c-4.4179688 0-8 3.5820313-8 8v6.1113281l-4.9443359 9.8886719h-22.1113281l-4.944336-9.8886719v-6.1113281c0-4.4179688-3.5820313-8-8-8-4.4111328 0-8-3.5888672-8-8h6.1113281l14.3105469 7.1552734c1.1376953.5683594 2.3613281.8447266 3.5761719.8447266 2.0751953 0 4.1230469-.8066406 5.6591797-2.3427734l10.8496094-10.8496094c1.1367187 3.0332031 4.0624999 5.1923828 7.493164 5.1923828h16c0 4.4111328-3.5888672 8-8 8z"/><path d="m506.5302734 296.4101563-11.8413086-3.9470215c6.0439454-8.2321778 9.3110352-18.1140137 9.3110352-28.4631348 0-12.765625-4.96875-24.8212891-14.0224609-33.9775391-1.1850586-1.1845703-2.4731445-2.302002-3.8173828-3.3742676 1.2011718-3.4257812 1.8398437-7.0153808 1.8398437-10.6481933 0-17.6445313-14.3554688-32-32-32s-32 14.3554688-32 32c0 3.6491699.6435547 7.255127 1.855957 10.6948242-11.1513672 9.0473633-17.855957 22.756836-17.855957 37.3051758 0 10.3410645 3.2626953 20.215332 9.3149414 28.4619141l-11.8452148 3.9482422c-3.2666016 1.0888671-5.4697266 4.1464843-5.4697266 7.5898437v40c0 4.4179688 3.5820313 8 8 8h96c4.4179688 0 8-3.5820313 8-8v-40c0-3.4433594-2.203125-6.5009766-5.4697266-7.5898437zm-34.5302734-3.7241211-3.3134766 3.3139648h-25.3730469l-3.3134765-3.3139648v-12.6860352c6.0058594 0 11.6269531-2.1708984 15.9814453-6.1425781 4.2509766 3.8173828 9.8681641 6.1425781 16.0185547 6.1425781zm-9.1533203 33.152832-6.8466797 6.8476562-6.8466797-6.8476563 4.6132813-13.8388671h4.4667969zm-6.8466797-125.8388672c8.8222656 0 16 7.1777344 16 16 0 .8869629-.0830078 1.7705078-.2299805 2.645752-5.008789-1.7385254-10.340332-2.645752-15.7700195-2.645752-5.4345703 0-10.7700195.9089355-15.7705078 2.6435547-.1469727-.8745117-.2294922-1.7573242-.2294922-2.6435547 0-8.8222656 7.1777344-16 16-16zm-15.9404297 36.2529297c4.7236328-2.7822266 10.2363281-4.2529297 15.9404297-4.2529297s11.2167969 1.4707031 15.9902344 4.2822266c2.5878906 1.4990234 4.7714844 3.1523438 6.6416016 5.0224609 6.0410156 6.109375 9.368164 14.1689453 9.368164 22.6953125 0 1.8134766-.1503906 3.6054688-.4453125 5.3623047-1.0898437-3.1220703-4.0605469-5.3623047-7.5546875-5.3623047h-8c-4.4111328 0-8-3.5888672-8-8 0-4.4179688-3.5820313-8-8-8s-8 3.5820313-8 8c0 2.1337891-.8164063 4.1025391-2.2978516 5.5439453-.0537109.0517578-.1064453.1044922-.1582031.1582031-1.4414062 1.4814454-3.4101562 2.2978516-5.5439453 2.2978516h-8c-3.4931641 0-6.4638672 2.2392578-7.5546875 5.3613281-.2949219-1.7568359-.4453125-3.5478515-.4453125-5.3613281 0-11.5410156 5.9863281-21.9042969 16.0595703-27.7470703zm-24.0595703 73.5126953 13.8388672-4.6123047 4.5039063 4.5039063c.7880859.7875977 1.7250977 1.3881836 2.7426758 1.7866211l-4.675293 14.0258789c-.9580078 2.875-.2099609 6.0449219 1.9326172 8.1875l2.3427734 2.3427734h-20.6855469zm80 26.234375h-20.6855469l2.3427734-2.3427734c2.1425781-2.1425781 2.890625-5.3125 1.9326172-8.1875l-4.675293-14.0258789c1.0175781-.3984375 1.9545898-.9990234 2.7426758-1.7866211l4.5039063-4.5039063 13.8388672 4.6123047z"/><path d="m120 248h-32c-4.4179688 0-8 3.5820313-8 8v32c0 4.4179688 3.5820313 8 8 8h32c4.4179688 0 8-3.5820313 8-8v-32c0-4.4179687-3.5820312-8-8-8zm-8 32h-16v-16h16z"/><path d="m301.4560547 394.1494141-29.4560547-27.4682618v-38.6811523c0-2.1220703-.8427734-4.15625-2.3427734-5.6572266l-24-24c-1.5009766-1.5-3.5351563-2.3427734-5.6572266-2.3427734h-16v-88c0-4.4179688-3.5820313-8-8-8h-33.3762207c-3.3024902-9.3110352-12.1948242-16-22.6237793-16 0-6.4550781-2.5078125-12.4658203-7.0644531-16.9384766-4.4707031-4.5546875-10.4804688-7.0615234-16.9355469-7.0615234-13.2333984 0-24 10.7666016-24 24-10.4289551 0-19.3212891 6.6889648-22.6237793 16h-33.3762207c-4.4179688 0-8 3.5820313-8 8v88h-16c-2.1220703 0-4.15625.8427734-5.6572266 2.3427734l-24 24c-1.5 1.5009766-2.3427734 3.5351563-2.3427734 5.6572266v80 96c0 4.4179688 3.5820313 8 8 8h48c4.4179688 0 8-3.5820313 8-8v-48h144v48c0 4.4179688 3.5820313 8 8 8h48c4.4179688 0 8-3.5820313 8-8v-84.5263672l2.5371094 2.3710938c1.540039 1.4394531 3.5019531 2.1552734 5.461914 2.1552734 2.0507813 0 4.0986328-.7841797 5.6582031-2.3427734l16-16c1.5341797-1.5351563 2.3798828-3.6269531 2.3417969-5.796875s-.9560546-4.2314453-2.5429687-5.7109375zm-45.4560547-62.8359375v20.4360352l-33.0844727-30.8793945c-1.0600586-3.3371582-2.7983398-6.3476563-5.065918-8.8701172h18.8369141zm-36.6865234 60.6865234-27.3134766-27.3134766v-44.6865234h8c.2753906 0 .5498047-.0078125.7080078 0 .0429688.0058594.0859375.0117188.1289063.0166016 3.2695313.4140625 6.0371094 2.8330078 6.9296875 5.9785156l.2333984 30.3066406c.0175781 2.1962891.9355469 4.2880859 2.5410156 5.7861328l32.0449219 29.9121094zm-42.5820313-83.3271484-8.7314453-8.1494141v-4.5234375h4.8505859l8.9272461 8.3193359c-2.248291.6496582-4.0847168 2.2570801-5.0463867 4.3535157zm-72.7314453-100.6728516c0-4.4111328 3.5888672-8 8-8h8c4.4179688 0 8-3.5820313 8-8v-8c0-4.4111328 3.5888672-8 8-8 2.1347656 0 4.1035156.8164063 5.5449219 2.2978516.0507813.0527344.1035156.1054688.15625.15625 1.4824219 1.4423828 2.2988281 3.4111328 2.2988281 5.5458984v8c0 4.4179688 3.5820313 8 8 8h8c4.4111328 0 8 3.5888672 8 8v8h-64zm-88 123.3134766 19.3134766-19.3134766h12.6865234v40c0 4.4179688 3.5820313 8 8 8s8-3.5820313 8-8c0-4.4111328 3.5888672-8 8-8h8v8 20.6865234l-27.3134766 27.3134766h-36.6865234zm80 60.6865234h16v16h-16zm-80 104v-80h32v80zm48-56v-28.6855469l16-16v20.6855469c0 4.4179688 3.5820313 8 8 8h32c4.4179688 0 8-3.5820313 8-8v-32c0-4.4179688-3.5820313-8-8-8h-24v-16h24c4.4179688 0 8-3.5820313 8-8v-32c0-4.4179688-3.5820313-8-8-8h-32c-4.4179688 0-8 3.5820313-8 8v8h-8c-2.8037109 0-5.4970703.4833984-8 1.3710938v-25.3710938-88h24v8c0 4.4179688 3.5820313 8 8 8h80c4.4179688 0 8-3.5820313 8-8v-8h24v80 8 1.390625c-.7709961-.2763672-1.560791-.5107422-2.3654785-.7094727l-24.1804199-22.5336914c-1.4804688-1.3798828-3.4296875-2.1474609-5.4541016-2.1474609h-16c-4.4179688 0-8 3.5820313-8 8v16c0 2.2177734.9199219 4.3349609 2.5410156 5.8486328l21.4589844 20.0288086v38.1225586c0 2.1220703.8427734 4.15625 2.3427734 5.6572266l29.6572266 29.6572265v36.6855469zm32-96v-16h16v16zm160 152h-32v-88h32zm23.8115234-91.1259766-11.46875-10.71875c-.0024414-.0024414-.0053711-.0043945-.0078125-.0068359l-44.3613281-41.4091797-.0698242-9.0593262 34.6401367 32.3308105 25.9414063 24.1904297z"/><path d="m152 264h32c4.4179688 0 8-3.5820313 8-8s-3.5820313-8-8-8h-32c-4.4179688 0-8 3.5820313-8 8s3.5820313 8 8 8z"/><path d="m152 352h8c4.4179688 0 8-3.5820313 8-8s-3.5820313-8-8-8h-8c-4.4179688 0-8 3.5820313-8 8s3.5820313 8 8 8z"/><path d="m184 408h-32c-4.4179688 0-8 3.5820313-8 8s3.5820313 8 8 8h32c4.4179688 0 8-3.5820313 8-8s-3.5820312-8-8-8z"/><path d="m136 144c-39.7011719 0-72-32.2988281-72-72s32.2988281-72 72-72 72 32.2988281 72 72-32.2988281 72-72 72zm0-128c-30.8789063 0-56 25.1210938-56 56s25.1210938 56 56 56 56-25.1210938 56-56-25.1210937-56-56-56z"/><path d="m152 80h-16c-4.4179688 0-8-3.5820313-8-8v-32c0-4.4179688 3.5820313-8 8-8s8 3.5820313 8 8v24h8c4.4179688 0 8 3.5820313 8 8s-3.5820312 8-8 8z"/><path d="m365.6572266 226.3427734c-3.125-3.1230469-8.1894531-3.1230469-11.3144531 0-3.1240234 3.125-3.1240234 8.1894531 0 11.3144531l10.3432617 10.3427735h-108.6860352c-4.4179688 0-8 3.5820313-8 8s3.5820313 8 8 8h108.6860352l-10.3432617 10.3427734c-3.1240234 3.125-3.1240234 8.1894531 0 11.3144531 1.5624999 1.5615235 3.6093749 2.3427735 5.6572265 2.3427735s4.0947266-.78125 5.6572266-2.3427734l24-24c3.1240234-3.125 3.1240234-8.1894531 0-11.3144531z"/><path d="m256 224h40c22.0556641 0 40-17.9443359 40-40v-56c0-13.2333984 10.7666016-24 24-24h4.6860352l-10.3432617 10.3427734c-3.1240234 3.125-3.1240234 8.1894531 0 11.3144531 1.5624999 1.5615235 3.6093749 2.3427735 5.6572265 2.3427735s4.0947266-.78125 5.6572266-2.3427734l24-24c3.1240234-3.125 3.1240234-8.1894531 0-11.3144531l-24-24c-3.125-3.1230469-8.1894531-3.1230469-11.3144531 0-3.1240234 3.125-3.1240234 8.1894531 0 11.3144531l10.3432617 10.3427734h-4.6860352c-22.0556641 0-40 17.9443359-40 40v56c0 13.2333984-10.7666016 24-24 24h-40c-4.4179688 0-8 3.5820313-8 8s3.5820313 8 8 8z"/><path d="m365.6572266 386.3427734c-3.125-3.1230469-8.1894531-3.1230469-11.3144531 0-3.1240234 3.125-3.1240234 8.1894531 0 11.3144531l10.3432617 10.3427735h-4.6860352c-13.2333984 0-24-10.7666016-24-24v-56c0-22.0556641-17.9443359-40-40-40h-40c-4.4179688 0-8 3.5820313-8 8s3.5820313 8 8 8h40c13.2333984 0 24 10.7666016 24 24v56c0 22.0556641 17.9443359 40 40 40h4.6860352l-10.3432617 10.3427734c-3.1240234 3.125-3.1240234 8.1894531 0 11.3144531 1.5624999 1.5615235 3.6093749 2.3427735 5.6572265 2.3427735s4.0947266-.78125 5.6572266-2.3427734l24-24c3.1240234-3.125 3.1240234-8.1894531 0-11.3144531z"/><path d="m507.578125 456.8447266-11.578125-5.7890625v-3.4570313c9.1171875-1.859375 16-9.9404297 16-19.5986328 0-9.6586914-6.8818359-17.7385254-16-19.5969238v-16.4030762c0-13.2333984-10.7666016-24-24-24h-32c-13.2333984 0-24 10.7666016-24 24v8 8.4013672c-9.1171875 1.859375-16 9.9404297-16 19.5986328s6.8828125 17.7392578 16 19.5986328v3.4570313l-11.578125 5.7890625c-2.7099609 1.3554687-4.421875 4.125-4.421875 7.1552734v40c0 4.4179688 3.5820313 8 8 8h96c4.4179688 0 8-3.5820313 8-8v-40c0-3.0302734-1.7119141-5.7998047-4.421875-7.1552734zm-75.578125-64.8447266c0-4.4111328 3.5888672-8 8-8h32c4.4111328 0 8 3.5888672 8 8v13.7539063l-48-12zm-12 32h4c4.4179688 0 8-3.5820313 8-8v-5.7541504l54.0595703 13.5148926c.6416016.1611328 1.2929688.2392578 1.9404297.2392578h4c2.2060547 0 4 1.7939453 4 4s-1.7939453 4-4 4h-4c-4.4179688 0-8 3.5820313-8 8v12.6865234l-3.3134766 3.3134766h-41.3730469l-3.3134765-3.3134766v-12.6865234c0-4.4179688-3.5820313-8-8-8h-4c-2.2060547 0-4-1.7939453-4-4s1.7939453-4 4-4zm42.8466797 61.8388672-6.8466797 6.8476562-6.8466797-6.8476563 4.6132813-13.8388671h4.4667969zm-46.8466797-16.8945313 6.4199219-3.2099609 3.9228516 3.9228516c1.5009765 1.5 3.5351562 2.3427734 5.6572265 2.3427734h4.8999023l-4.4897461 13.4697266c-.9580078 2.875-.2099609 6.0449219 1.9326172 8.1875l2.3427735 2.3427734h-20.6855469zm80 27.0556641h-20.6855469l2.3427734-2.3427734c2.1425781-2.1425781 2.890625-5.3125 1.9326172-8.1875l-4.489746-13.4697266h4.8999023c2.1220703 0 4.15625-.8427734 5.6572266-2.3427734l3.9228516-3.9228516 6.4199218 3.2099609z"/></svg>