<svg width="884" height="356" viewBox="0 0 884 356" fill="none" xmlns="http://www.w3.org/2000/svg">
<path fill-rule="evenodd" clip-rule="evenodd" d="M225.443 208.596C225.813 208.555 226.187 208.555 226.557 208.596L317.34 218.683C318.82 218.848 320.153 219.658 320.979 220.898L341.153 251.159C342.185 252.706 342.281 254.696 341.403 256.336C340.526 257.976 338.817 259 336.957 259H115.043C113.183 259 111.474 257.976 110.597 256.336C109.719 254.696 109.815 252.706 110.847 251.159L131.021 220.898C131.847 219.658 133.18 218.848 134.66 218.683L225.443 208.596ZM138.11 228.449L124.467 248.913H327.533L313.89 228.449L226 218.683L138.11 228.449Z" fill="#0158B0"/>
<path fill-rule="evenodd" clip-rule="evenodd" d="M160.435 178.304V97.6086H170.522V174.942L226 198.058L281.478 174.942V112.739H291.565V178.304C291.565 180.34 290.341 182.177 288.461 182.96L227.94 208.177C226.698 208.694 225.301 208.694 224.06 208.177L163.538 182.96C161.659 182.177 160.435 180.34 160.435 178.304Z" fill="#0158B0"/>
<path fill-rule="evenodd" clip-rule="evenodd" d="M223.744 47.7064C225.164 46.9965 226.835 46.9965 228.255 47.7064L288.777 77.9673C290.486 78.8216 291.565 80.568 291.565 82.4783V112.739C291.565 115.525 289.307 117.783 286.522 117.783H226C225.587 117.783 225.177 117.732 224.777 117.632L164.255 102.502C162.01 101.94 160.435 99.923 160.435 97.6087V82.4783C160.435 80.568 161.514 78.8216 163.223 77.9673L223.744 47.7064ZM170.522 85.5953V93.6709L226.621 107.696H281.478V85.5953L226 57.8562L170.522 85.5953Z" fill="#0158B0"/>
<path fill-rule="evenodd" clip-rule="evenodd" d="M205.826 127.87C208.612 127.87 210.87 130.128 210.87 132.913V143C210.87 145.785 208.612 148.043 205.826 148.043C203.041 148.043 200.783 145.785 200.783 143V132.913C200.783 130.128 203.041 127.87 205.826 127.87ZM246.174 127.87C248.959 127.87 251.217 130.128 251.217 132.913V143C251.217 145.785 248.959 148.043 246.174 148.043C243.389 148.043 241.131 145.785 241.131 143V132.913C241.131 130.128 243.389 127.87 246.174 127.87Z" fill="#0158B0"/>
<path fill-rule="evenodd" clip-rule="evenodd" d="M148.253 103.604C149.569 104.552 150.348 106.074 150.348 107.696V173.261C150.348 174.882 149.569 176.404 148.253 177.352C146.938 178.3 145.247 178.558 143.709 178.046L113.449 167.959C111.389 167.272 110 165.345 110 163.174V117.783C110 115.612 111.389 113.684 113.449 112.998L143.709 102.911C145.247 102.398 146.938 102.656 148.253 103.604ZM303.747 103.604C305.062 102.656 306.753 102.398 308.291 102.911L338.551 112.998C340.611 113.684 342 115.612 342 117.783V163.174C342 165.345 340.611 167.272 338.551 167.959L308.291 178.046C306.753 178.558 305.062 178.3 303.747 177.352C302.431 176.404 301.652 174.882 301.652 173.261V107.696C301.652 106.074 302.431 104.552 303.747 103.604ZM120.087 121.418V159.539L140.261 166.263V114.693L120.087 121.418ZM311.739 114.693V166.263L331.913 159.539V121.418L311.739 114.693Z" fill="#0158B0"/>
<path fill-rule="evenodd" clip-rule="evenodd" d="M206.085 166.623C206.966 163.98 209.822 162.552 212.464 163.433L226 167.945L239.536 163.433C242.178 162.552 245.034 163.98 245.915 166.623C246.796 169.265 245.368 172.121 242.725 173.002L227.595 178.046C226.56 178.391 225.44 178.391 224.405 178.046L209.275 173.002C206.632 172.121 205.204 169.265 206.085 166.623Z" fill="#0158B0"/>
<path fill-rule="evenodd" clip-rule="evenodd" d="M223.744 27.5325C225.164 26.8225 226.835 26.8225 228.255 27.5325L308.951 67.8803C310.66 68.7346 311.739 70.481 311.739 72.3913V107.696C311.739 110.481 309.481 112.739 306.695 112.739C303.91 112.739 301.652 110.481 301.652 107.696V75.5083L226 37.6823L150.348 75.5083V107.696C150.348 110.481 148.09 112.739 145.304 112.739C142.519 112.739 140.261 110.481 140.261 107.696V72.3913C140.261 70.481 141.34 68.7346 143.049 67.8803L223.744 27.5325Z" fill="#0158B0"/>
<mask id="path-8-inside-1_33_1434" fill="white">
<rect width="451" height="286" rx="8"/>
</mask>
<rect width="451" height="286" rx="8" stroke="#0158B0" stroke-width="20" mask="url(#path-8-inside-1_33_1434)"/>
<path d="M128 350C156.907 337.926 236.378 321.022 323 350" stroke="#0158B0" stroke-width="10" stroke-linecap="round"/>
<path d="M193 284.5V335" stroke="#0158B0" stroke-width="10" stroke-linecap="round"/>
<path d="M259 284.5V335" stroke="#0158B0" stroke-width="10" stroke-linecap="round"/>
<path d="M549.08 38.33V94.98C549.08 101.287 547.137 106.347 543.25 110.16C539.363 113.9 534.23 115.77 527.85 115.77C521.397 115.77 516.227 113.863 512.34 110.05C508.453 106.163 506.51 100.883 506.51 94.21H516.52C516.593 97.95 517.547 100.993 519.38 103.34C521.287 105.687 524.11 106.86 527.85 106.86C531.59 106.86 534.377 105.76 536.21 103.56C538.043 101.287 538.96 98.4267 538.96 94.98V38.33H549.08ZM573.97 44.93C572.063 44.93 570.45 44.27 569.13 42.95C567.81 41.63 567.15 40.0167 567.15 38.11C567.15 36.2033 567.81 34.59 569.13 33.27C570.45 31.95 572.063 31.29 573.97 31.29C575.803 31.29 577.343 31.95 578.59 33.27C579.91 34.59 580.57 36.2033 580.57 38.11C580.57 40.0167 579.91 41.63 578.59 42.95C577.343 44.27 575.803 44.93 573.97 44.93ZM578.81 54.72V115H568.8V54.72H578.81ZM608.08 62.97V98.5C608.08 101.433 608.704 103.523 609.95 104.77C611.197 105.943 613.36 106.53 616.44 106.53H623.81V115H614.79C609.217 115 605.037 113.717 602.25 111.15C599.464 108.583 598.07 104.367 598.07 98.5V62.97H590.26V54.72H598.07V39.54H608.08V54.72H623.81V62.97H608.08ZM657.279 115.99C652.659 115.99 648.515 115.22 644.849 113.68C641.182 112.067 638.285 109.867 636.159 107.08C634.032 104.22 632.859 100.957 632.639 97.29H642.979C643.272 100.297 644.665 102.753 647.159 104.66C649.725 106.567 653.062 107.52 657.169 107.52C660.982 107.52 663.989 106.677 666.189 104.99C668.389 103.303 669.489 101.177 669.489 98.61C669.489 95.97 668.315 94.0267 665.969 92.78C663.622 91.46 659.992 90.1767 655.079 88.93C650.605 87.7567 646.939 86.5833 644.079 85.41C641.292 84.1633 638.872 82.3667 636.819 80.02C634.839 77.6 633.849 74.4467 633.849 70.56C633.849 67.48 634.765 64.6567 636.599 62.09C638.432 59.5233 641.035 57.5067 644.409 56.04C647.782 54.5 651.632 53.73 655.959 53.73C662.632 53.73 668.022 55.4167 672.129 58.79C676.235 62.1633 678.435 66.7833 678.729 72.65H668.719C668.499 69.4967 667.215 66.9667 664.869 65.06C662.595 63.1533 659.515 62.2 655.629 62.2C652.035 62.2 649.175 62.97 647.049 64.51C644.922 66.05 643.859 68.0667 643.859 70.56C643.859 72.54 644.482 74.19 645.729 75.51C647.049 76.7567 648.662 77.7833 650.569 78.59C652.549 79.3233 655.262 80.1667 658.709 81.12C663.035 82.2933 666.555 83.4667 669.269 84.64C671.982 85.74 674.292 87.4267 676.199 89.7C678.179 91.9733 679.205 94.9433 679.279 98.61C679.279 101.91 678.362 104.88 676.529 107.52C674.695 110.16 672.092 112.25 668.719 113.79C665.419 115.257 661.605 115.99 657.279 115.99ZM698.579 44.93C696.673 44.93 695.059 44.27 693.739 42.95C692.419 41.63 691.759 40.0167 691.759 38.11C691.759 36.2033 692.419 34.59 693.739 33.27C695.059 31.95 696.673 31.29 698.579 31.29C700.413 31.29 701.953 31.95 703.199 33.27C704.519 34.59 705.179 36.2033 705.179 38.11C705.179 40.0167 704.519 41.63 703.199 42.95C701.953 44.27 700.413 44.93 698.579 44.93ZM703.419 54.72V115H693.409V54.72H703.419ZM555.79 225.95H522.35L516.19 243H505.63L533.35 166.77H544.9L572.51 243H561.95L555.79 225.95ZM552.93 217.81L539.07 179.09L525.21 217.81H552.93ZM580.851 212.64C580.851 206.48 582.098 201.09 584.591 196.47C587.084 191.777 590.494 188.147 594.821 185.58C599.221 183.013 604.134 181.73 609.561 181.73C614.254 181.73 618.618 182.83 622.651 185.03C626.684 187.157 629.764 189.98 631.891 193.5V161.6H642.011V243H631.891V231.67C629.911 235.263 626.978 238.233 623.091 240.58C619.204 242.853 614.658 243.99 609.451 243.99C604.098 243.99 599.221 242.67 594.821 240.03C590.494 237.39 587.084 233.687 584.591 228.92C582.098 224.153 580.851 218.727 580.851 212.64ZM631.891 212.75C631.891 208.203 630.974 204.243 629.141 200.87C627.308 197.497 624.814 194.93 621.661 193.17C618.581 191.337 615.171 190.42 611.431 190.42C607.691 190.42 604.281 191.3 601.201 193.06C598.121 194.82 595.664 197.387 593.831 200.76C591.998 204.133 591.081 208.093 591.081 212.64C591.081 217.26 591.998 221.293 593.831 224.74C595.664 228.113 598.121 230.717 601.201 232.55C604.281 234.31 607.691 235.19 611.431 235.19C615.171 235.19 618.581 234.31 621.661 232.55C624.814 230.717 627.308 228.113 629.141 224.74C630.974 221.293 631.891 217.297 631.891 212.75ZM731.417 181.62C736.11 181.62 740.29 182.61 743.957 184.59C747.624 186.497 750.52 189.393 752.647 193.28C754.774 197.167 755.837 201.897 755.837 207.47V243H745.937V208.9C745.937 202.887 744.434 198.303 741.427 195.15C738.494 191.923 734.497 190.31 729.437 190.31C724.23 190.31 720.087 191.997 717.007 195.37C713.927 198.67 712.387 203.473 712.387 209.78V243H702.487V208.9C702.487 202.887 700.984 198.303 697.977 195.15C695.044 191.923 691.047 190.31 685.987 190.31C680.78 190.31 676.637 191.997 673.557 195.37C670.477 198.67 668.937 203.473 668.937 209.78V243H658.927V182.72H668.937V191.41C670.917 188.257 673.557 185.837 676.857 184.15C680.23 182.463 683.934 181.62 687.967 181.62C693.027 181.62 697.5 182.757 701.387 185.03C705.274 187.303 708.17 190.64 710.077 195.04C711.764 190.787 714.55 187.487 718.437 185.14C722.324 182.793 726.65 181.62 731.417 181.62ZM777.427 172.93C775.52 172.93 773.907 172.27 772.587 170.95C771.267 169.63 770.607 168.017 770.607 166.11C770.607 164.203 771.267 162.59 772.587 161.27C773.907 159.95 775.52 159.29 777.427 159.29C779.26 159.29 780.8 159.95 782.047 161.27C783.367 162.59 784.027 164.203 784.027 166.11C784.027 168.017 783.367 169.63 782.047 170.95C780.8 172.27 779.26 172.93 777.427 172.93ZM782.267 182.72V243H772.257V182.72H782.267ZM828.697 181.62C836.031 181.62 841.971 183.857 846.517 188.33C851.064 192.73 853.337 199.11 853.337 207.47V243H843.437V208.9C843.437 202.887 841.934 198.303 838.927 195.15C835.921 191.923 831.814 190.31 826.607 190.31C821.327 190.31 817.111 191.96 813.957 195.26C810.877 198.56 809.337 203.363 809.337 209.67V243H799.327V182.72H809.337V191.3C811.317 188.22 813.994 185.837 817.367 184.15C820.814 182.463 824.591 181.62 828.697 181.62Z" fill="#D70112"/>
</svg>
