<svg width="170" height="69" viewBox="0 0 170 69" fill="none" xmlns="http://www.w3.org/2000/svg">
<path d="M109.386 7.63614V18.9218C109.386 20.1782 108.999 21.1863 108.225 21.946C107.451 22.691 106.428 23.0636 105.157 23.0636C103.871 23.0636 102.842 22.6837 102.067 21.924C101.293 21.1497 100.906 20.0979 100.906 18.7684H102.9C102.915 19.5135 103.104 20.1198 103.47 20.5873C103.85 21.0548 104.412 21.2885 105.157 21.2885C105.902 21.2885 106.457 21.0694 106.823 20.6311C107.188 20.1782 107.37 19.6085 107.37 18.9218V7.63614H109.386Z" fill="#D70112"/>
<path d="M114.345 8.95097C113.965 8.95097 113.644 8.81949 113.381 8.55652C113.118 8.29355 112.986 7.97215 112.986 7.59231C112.986 7.21247 113.118 6.89106 113.381 6.62809C113.644 6.36513 113.965 6.23364 114.345 6.23364C114.71 6.23364 115.017 6.36513 115.265 6.62809C115.528 6.89106 115.66 7.21247 115.66 7.59231C115.66 7.97215 115.528 8.29355 115.265 8.55652C115.017 8.81949 114.71 8.95097 114.345 8.95097ZM115.309 10.9013V22.9102H113.315V10.9013H115.309Z" fill="#D70112"/>
<path d="M121.14 12.5449V19.6231C121.14 20.2074 121.265 20.6238 121.513 20.8722C121.761 21.1059 122.192 21.2228 122.806 21.2228H124.274V22.9102H122.477C121.367 22.9102 120.534 22.6545 119.979 22.1432C119.424 21.6319 119.146 20.7918 119.146 19.6231V12.5449H117.59V10.9013H119.146V7.87719H121.14V10.9013H124.274V12.5449H121.14Z" fill="#D70112"/>
<path d="M130.942 23.1074C130.021 23.1074 129.196 22.954 128.465 22.6472C127.735 22.3258 127.158 21.8875 126.734 21.3324C126.31 20.7626 126.077 20.1125 126.033 19.382H128.093C128.151 19.981 128.429 20.4704 128.926 20.8503C129.437 21.2301 130.102 21.42 130.92 21.42C131.679 21.42 132.278 21.252 132.717 20.916C133.155 20.58 133.374 20.1563 133.374 19.645C133.374 19.1191 133.14 18.7319 132.673 18.4835C132.205 18.2206 131.482 17.9649 130.503 17.7166C129.612 17.4828 128.882 17.2491 128.312 17.0153C127.757 16.767 127.275 16.409 126.866 15.9415C126.471 15.4594 126.274 14.8312 126.274 14.0569C126.274 13.4433 126.457 12.8809 126.822 12.3696C127.187 11.8582 127.706 11.4565 128.378 11.1643C129.05 10.8575 129.817 10.7041 130.679 10.7041C132.008 10.7041 133.082 11.0401 133.9 11.7121C134.718 12.3842 135.156 13.3045 135.215 14.4733H133.221C133.177 13.8451 132.921 13.3411 132.454 12.9612C132.001 12.5814 131.387 12.3915 130.613 12.3915C129.897 12.3915 129.327 12.5449 128.904 12.8517C128.48 13.1585 128.268 13.5602 128.268 14.0569C128.268 14.4514 128.392 14.7801 128.641 15.0431C128.904 15.2914 129.225 15.4959 129.605 15.6566C129.999 15.8027 130.54 15.9707 131.226 16.1607C132.088 16.3944 132.79 16.6282 133.33 16.8619C133.871 17.0811 134.331 17.4171 134.711 17.87C135.105 18.3228 135.31 18.9145 135.324 19.645C135.324 20.3024 135.142 20.8941 134.777 21.42C134.411 21.946 133.893 22.3623 133.221 22.6691C132.563 22.9613 131.804 23.1074 130.942 23.1074Z" fill="#D70112"/>
<path d="M139.169 8.95097C138.79 8.95097 138.468 8.81949 138.205 8.55652C137.942 8.29355 137.811 7.97215 137.811 7.59231C137.811 7.21247 137.942 6.89106 138.205 6.62809C138.468 6.36513 138.79 6.23364 139.169 6.23364C139.535 6.23364 139.841 6.36513 140.09 6.62809C140.353 6.89106 140.484 7.21247 140.484 7.59231C140.484 7.97215 140.353 8.29355 140.09 8.55652C139.841 8.81949 139.535 8.95097 139.169 8.95097ZM140.134 10.9013V22.9102H138.139V10.9013H140.134Z" fill="#D70112"/>
<path d="M110.723 45.0134H104.061L102.834 48.41H100.73L106.253 33.2237H108.554L114.054 48.41H111.95L110.723 45.0134ZM110.153 43.3917L107.392 35.678L104.631 43.3917H110.153Z" fill="#D70112"/>
<path d="M115.716 42.3618C115.716 41.1346 115.964 40.0608 116.461 39.1404C116.958 38.2054 117.637 37.4823 118.499 36.971C119.375 36.4596 120.354 36.204 121.435 36.204C122.37 36.204 123.24 36.4231 124.043 36.8614C124.847 37.2851 125.46 37.8475 125.884 38.5488V32.1937H127.9V48.41H125.884V46.1529C125.489 46.8688 124.905 47.4604 124.131 47.9279C123.357 48.3808 122.451 48.6073 121.413 48.6073C120.347 48.6073 119.375 48.3443 118.499 47.8184C117.637 47.2924 116.958 46.5547 116.461 45.6051C115.964 44.6555 115.716 43.5744 115.716 42.3618ZM125.884 42.3837C125.884 41.4779 125.701 40.689 125.336 40.017C124.971 39.345 124.474 38.8336 123.846 38.483C123.232 38.1178 122.553 37.9352 121.808 37.9352C121.063 37.9352 120.384 38.1105 119.77 38.4611C119.156 38.8117 118.667 39.3231 118.302 39.9951C117.936 40.6671 117.754 41.456 117.754 42.3618C117.754 43.2822 117.936 44.0857 118.302 44.7723C118.667 45.4444 119.156 45.963 119.77 46.3282C120.384 46.6788 121.063 46.8542 121.808 46.8542C122.553 46.8542 123.232 46.6788 123.846 46.3282C124.474 45.963 124.971 45.4444 125.336 44.7723C125.701 44.0857 125.884 43.2895 125.884 42.3837Z" fill="#D70112"/>
<path d="M145.711 36.1821C146.646 36.1821 147.479 36.3793 148.209 36.7737C148.94 37.1536 149.517 37.7306 149.941 38.5049C150.364 39.2792 150.576 40.2215 150.576 41.3318V48.41H148.604V41.6167C148.604 40.4188 148.304 39.5057 147.705 38.8775C147.121 38.2347 146.325 37.9133 145.317 37.9133C144.28 37.9133 143.454 38.2493 142.841 38.9213C142.227 39.5787 141.92 40.5356 141.92 41.792V48.41H139.948V41.6167C139.948 40.4188 139.648 39.5057 139.049 38.8775C138.465 38.2347 137.669 37.9133 136.661 37.9133C135.624 37.9133 134.798 38.2493 134.185 38.9213C133.571 39.5787 133.264 40.5356 133.264 41.792V48.41H131.27V36.4012H133.264V38.1324C133.659 37.5042 134.185 37.0221 134.842 36.6861C135.514 36.3501 136.252 36.1821 137.055 36.1821C138.063 36.1821 138.954 36.4085 139.729 36.8614C140.503 37.3143 141.08 37.979 141.46 38.8556C141.796 38.0082 142.351 37.3508 143.125 36.8833C143.9 36.4158 144.762 36.1821 145.711 36.1821Z" fill="#D70112"/>
<path d="M154.877 34.4509C154.497 34.4509 154.176 34.3194 153.913 34.0564C153.65 33.7934 153.519 33.472 153.519 33.0922C153.519 32.7123 153.65 32.3909 153.913 32.128C154.176 31.865 154.497 31.7335 154.877 31.7335C155.243 31.7335 155.549 31.865 155.798 32.128C156.061 32.3909 156.192 32.7123 156.192 33.0922C156.192 33.472 156.061 33.7934 155.798 34.0564C155.549 34.3194 155.243 34.4509 154.877 34.4509ZM155.842 36.4012V48.41H153.847V36.4012H155.842Z" fill="#D70112"/>
<path d="M165.091 36.1821C166.552 36.1821 167.736 36.6276 168.641 37.5188C169.547 38.3954 170 39.6664 170 41.3318V48.41H168.028V41.6167C168.028 40.4188 167.728 39.5057 167.129 38.8775C166.53 38.2347 165.712 37.9133 164.675 37.9133C163.623 37.9133 162.783 38.242 162.155 38.8994C161.541 39.5568 161.234 40.5137 161.234 41.7701V48.41H159.24V36.4012H161.234V38.1105C161.629 37.4969 162.162 37.0221 162.834 36.6861C163.521 36.3501 164.273 36.1821 165.091 36.1821Z" fill="#D70112"/>
<path fill-rule="evenodd" clip-rule="evenodd" d="M2.99218 2.99218V53.9841H20.2145L25.1418 45.3613C25.6051 44.5506 26.4194 44.0018 27.3448 43.8768L44.5945 41.5457C44.6633 41.5364 44.7322 41.5295 44.8013 41.525C44.7454 41.5124 44.6904 41.4949 44.6367 41.4725L32.5797 36.4488C32.2053 36.2928 31.9614 35.9269 31.9614 35.5213V19.4453V19.4452V16.431C31.9614 16.0504 32.1764 15.7025 32.5168 15.5323L44.5738 9.50378C44.8567 9.36235 45.1897 9.36235 45.4725 9.50378L57.5295 15.5323C57.8699 15.7025 58.0849 16.0504 58.0849 16.431V22.4595V22.4596V35.5213C58.0849 35.9269 57.841 36.2928 57.4666 36.4488L45.4096 41.4725C45.3518 41.4966 45.2922 41.5151 45.2318 41.5279C45.291 41.5326 45.3501 41.539 45.409 41.5472L62.2472 43.8858C63.0966 44.0038 63.855 44.4797 64.3307 45.1932L70.1913 53.9841H86.855V2.99218H2.99218ZM67.7876 53.9841H22.518L26.8783 46.3536C27.0327 46.0834 27.3041 45.9004 27.6126 45.8587L44.8624 43.5277C44.9525 43.5155 45.0438 43.5157 45.1339 43.5282L61.9721 45.8668C62.2552 45.9062 62.508 46.0648 62.6666 46.3026L67.7876 53.9841ZM1.59374 0C0.713543 0 0 0.713544 0 1.59374V55.3826C0 56.2628 0.713541 56.9763 1.59374 56.9763H37.453V66.5H26V68.5H64.5V66.5H52.5935V56.9763H88.2535C89.1337 56.9763 89.8472 56.2628 89.8472 55.3826V1.59374C89.8472 0.713543 89.1337 0 88.2535 0H1.59374ZM50.6013 66.5V56.9763H39.4452V66.5H50.6013ZM45.4725 5.48498C45.1896 5.34355 44.8567 5.34355 44.5738 5.48498L28.4978 13.523C28.1574 13.6932 27.9424 14.0411 27.9424 14.4217V20.7308L22.6011 22.5113C22.1908 22.648 21.9141 23.032 21.9141 23.4645V32.5072C21.9141 32.9397 22.1908 33.3236 22.6011 33.4604L28.6296 35.4699C28.936 35.572 29.2728 35.5206 29.5348 35.3318C29.7968 35.143 29.9521 34.8397 29.9521 34.5167V21.455L29.9519 21.4357V15.0426L45.0231 7.507L60.0944 15.0426V21.4549L60.0946 21.4745V34.5167C60.0946 34.8397 60.2498 35.143 60.5118 35.3318C60.7739 35.5206 61.1107 35.572 61.4171 35.4699L67.4456 33.4604C67.8559 33.3236 68.1326 32.9397 68.1326 32.5072V23.4645C68.1326 23.032 67.8559 22.648 67.4456 22.5113L62.1039 20.7307V14.4217C62.1039 14.0411 61.8889 13.6932 61.5485 13.523L45.4725 5.48498ZM56.0754 23.4642H45.0232C44.941 23.4642 44.8592 23.4541 44.7795 23.4342L33.9709 20.7321V34.8515L45.0232 39.4566L56.0754 34.8515V23.4642ZM33.9709 18.6607V17.0519L45.0232 11.5258L56.0754 17.0519V21.4547H45.1469L33.9709 18.6607ZM41.5883 33.4365C42.1008 33.9199 43.1297 34.414 44.3285 34.5579C45.5532 34.7049 47.016 34.4943 48.3614 33.4789L47.6386 32.5211C46.584 33.3168 45.4468 33.4835 44.4715 33.3664C43.4702 33.2462 42.6992 32.8347 42.4117 32.5635L41.5883 33.4365ZM23.9236 24.1886V31.783L27.9426 33.1227V22.849L23.9236 24.1886ZM62.1041 22.849V33.1227L66.1231 31.783V24.1886L62.1041 22.849ZM43 27C43 28.1046 42.3284 29 41.5 29C40.6716 29 40 28.1046 40 27C40 25.8954 40.6716 25 41.5 25C41.7473 25 41.9807 25.0798 42.1864 25.2212C42.0727 25.4045 42 25.6853 42 26C42 26.5523 42.2239 27 42.5 27C42.6935 27 42.8613 26.7802 42.9444 26.4587C42.9806 26.6309 43 26.8124 43 27ZM48.5 29C49.3284 29 50 28.1046 50 27C50 26.8124 49.9806 26.6309 49.9444 26.4587C49.8613 26.7802 49.6935 27 49.5 27C49.2239 27 49 26.5523 49 26C49 25.6853 49.0727 25.4045 49.1864 25.2212C48.9807 25.0798 48.7473 25 48.5 25C47.6716 25 47 25.8954 47 27C47 28.1046 47.6716 29 48.5 29Z" fill="#0158B0"/>
</svg>
