<svg width="90" height="69" viewBox="0 0 90 69" fill="none" xmlns="http://www.w3.org/2000/svg">
<path fill-rule="evenodd" clip-rule="evenodd" d="M2.99218 2.99218V53.9841H20.2145L25.1418 45.3613C25.6051 44.5506 26.4194 44.0018 27.3448 43.8768L44.5945 41.5457C44.6633 41.5364 44.7322 41.5295 44.8013 41.525C44.7454 41.5124 44.6904 41.4949 44.6367 41.4725L32.5797 36.4488C32.2053 36.2928 31.9614 35.9269 31.9614 35.5213V19.4453V19.4452V16.431C31.9614 16.0504 32.1764 15.7025 32.5168 15.5323L44.5738 9.50378C44.8567 9.36235 45.1897 9.36235 45.4725 9.50378L57.5295 15.5323C57.8699 15.7025 58.0849 16.0504 58.0849 16.431V22.4595V22.4596V35.5213C58.0849 35.9269 57.841 36.2928 57.4666 36.4488L45.4096 41.4725C45.3518 41.4966 45.2922 41.5151 45.2318 41.5279C45.291 41.5326 45.3501 41.539 45.409 41.5472L62.2472 43.8858C63.0966 44.0038 63.855 44.4797 64.3307 45.1932L70.1913 53.9841H86.855V2.99218H2.99218ZM67.7876 53.9841H22.518L26.8783 46.3536C27.0327 46.0834 27.3041 45.9004 27.6126 45.8587L44.8624 43.5277C44.9525 43.5155 45.0438 43.5157 45.1339 43.5282L61.9721 45.8668C62.2552 45.9062 62.508 46.0648 62.6666 46.3026L67.7876 53.9841ZM1.59374 0C0.713543 0 0 0.713544 0 1.59374V55.3826C0 56.2628 0.713541 56.9763 1.59374 56.9763H37.453V66.5H26V68.5H64.5V66.5H52.5935V56.9763H88.2535C89.1337 56.9763 89.8472 56.2628 89.8472 55.3826V1.59374C89.8472 0.713543 89.1337 0 88.2535 0H1.59374ZM50.6013 66.5V56.9763H39.4452V66.5H50.6013ZM45.4725 5.48498C45.1896 5.34355 44.8567 5.34355 44.5738 5.48498L28.4978 13.523C28.1574 13.6932 27.9424 14.0411 27.9424 14.4217V20.7308L22.6011 22.5113C22.1908 22.648 21.9141 23.032 21.9141 23.4645V32.5072C21.9141 32.9397 22.1908 33.3236 22.6011 33.4604L28.6296 35.4699C28.936 35.572 29.2728 35.5206 29.5348 35.3318C29.7968 35.143 29.9521 34.8397 29.9521 34.5167V21.455L29.9519 21.4357V15.0426L45.0231 7.507L60.0944 15.0426V21.4549L60.0946 21.4745V34.5167C60.0946 34.8397 60.2498 35.143 60.5118 35.3318C60.7739 35.5206 61.1107 35.572 61.4171 35.4699L67.4456 33.4604C67.8559 33.3236 68.1326 32.9397 68.1326 32.5072V23.4645C68.1326 23.032 67.8559 22.648 67.4456 22.5113L62.1039 20.7307V14.4217C62.1039 14.0411 61.8889 13.6932 61.5485 13.523L45.4725 5.48498ZM56.0754 23.4642H45.0232C44.941 23.4642 44.8592 23.4541 44.7795 23.4342L33.9709 20.7321V34.8515L45.0232 39.4566L56.0754 34.8515V23.4642ZM33.9709 18.6607V17.0519L45.0232 11.5258L56.0754 17.0519V21.4547H45.1469L33.9709 18.6607ZM41.5883 33.4365C42.1008 33.9199 43.1297 34.414 44.3285 34.5579C45.5532 34.7049 47.016 34.4943 48.3614 33.4789L47.6386 32.5211C46.584 33.3168 45.4468 33.4835 44.4715 33.3664C43.4702 33.2462 42.6992 32.8347 42.4117 32.5635L41.5883 33.4365ZM23.9236 24.1886V31.783L27.9426 33.1227V22.849L23.9236 24.1886ZM62.1041 22.849V33.1227L66.1231 31.783V24.1886L62.1041 22.849ZM43 27C43 28.1046 42.3284 29 41.5 29C40.6716 29 40 28.1046 40 27C40 25.8954 40.6716 25 41.5 25C41.7473 25 41.9807 25.0798 42.1864 25.2212C42.0727 25.4045 42 25.6853 42 26C42 26.5523 42.2239 27 42.5 27C42.6935 27 42.8613 26.7802 42.9444 26.4587C42.9806 26.6309 43 26.8124 43 27ZM48.5 29C49.3284 29 50 28.1046 50 27C50 26.8124 49.9806 26.6309 49.9444 26.4587C49.8613 26.7802 49.6935 27 49.5 27C49.2239 27 49 26.5523 49 26C49 25.6853 49.0727 25.4045 49.1864 25.2212C48.9807 25.0798 48.7473 25 48.5 25C47.6716 25 47 25.8954 47 27C47 28.1046 47.6716 29 48.5 29Z" fill="#0158B0"/>
</svg>
