<svg xmlns="http://www.w3.org/2000/svg" viewBox="0 0 1172 1172"><defs><style>.cls-1{fill:#1d4862;}.cls-2{fill:#fff;}.cls-3{fill:#fcfcfc;}</style></defs><g id="Layer_2" data-name="Layer 2"><g id="Layer_1-2" data-name="Layer 1"><circle class="cls-1" cx="586" cy="586" r="586"/><path class="cls-2" d="M479.92,916.3H310.43V273.22H919.12v144a19.31,19.31,0,0,0,19.3,19.31h0a19.31,19.31,0,0,0,19.31-19.31V232.42H271.81V957.1H479.92a19.32,19.32,0,0,0,19.31-19.31v-2.18A19.31,19.31,0,0,0,479.92,916.3Z"/><path class="cls-2" d="M700,770.91H529.6a115.67,115.67,0,0,1-43.66-8.33q-41.64-16.65-61.58-57a97,97,0,0,1-9.59-42.65H494a23.27,23.27,0,0,0,5.56,15.77,35,35,0,0,0,13.75,9.72,43.52,43.52,0,0,0,16.28,3.28H700a44.47,44.47,0,0,0,16.4-3.28,34.93,34.93,0,0,0,13.88-9.72,23.31,23.31,0,0,0,5.55-15.77,23,23,0,0,0-5.55-15.52,36,36,0,0,0-13.88-9.84,42.94,42.94,0,0,0-16.4-3.41H529.6a118.88,118.88,0,0,1-43.66-8.08q-41.64-16.65-61.58-57a99.63,99.63,0,0,1,0-85.3q19.93-40.38,61.58-57a119.08,119.08,0,0,1,43.66-8.07H700a117.76,117.76,0,0,1,43.65,8.07q41.89,16.67,61.84,57a99.38,99.38,0,0,1,9.33,42.65h-79a23,23,0,0,0-5.55-15.52A36,36,0,0,0,716.35,501,42.94,42.94,0,0,0,700,497.6H529.6A42,42,0,0,0,513.32,501a36.15,36.15,0,0,0-13.75,9.84,24.61,24.61,0,0,0,0,31.16,36.75,36.75,0,0,0,13.75,9.72,42.21,42.21,0,0,0,16.28,3.41H700a114.4,114.4,0,0,1,43.65,8.33q41.89,16.65,61.84,57a101.58,101.58,0,0,1,0,85q-20,40.38-61.84,57A114.4,114.4,0,0,1,700,770.91Z"/><path class="cls-3" d="M949.67,758.66H941.8V738.12a6.89,6.89,0,0,0-2.93-5.68,7.77,7.77,0,0,0-9.66.64l-27.35,25.58H860.64c-12.22,0-22.13,9.27-22.13,20.7v7.36H742.09c-12.22,0-22.13,9.27-22.13,20.71V918.31c0,11.43,9.91,20.7,22.13,20.7h7.38v20.7a7.16,7.16,0,0,0,7.38,6.9,7.64,7.64,0,0,0,5.22-2L789.42,939H890.15c12.23,0,22.14-9.27,22.14-20.7V855.74h37.38c12.23,0,22.14-9.27,22.14-20.71V779.36c0-11.41-9.93-20.7-22.14-20.7ZM897.53,918.31a7.15,7.15,0,0,1-7.38,6.9H785.62a5.79,5.79,0,0,0-4,1.53l-17.44,16.31V930.43a5.41,5.41,0,0,0-5.59-5.22H742.09a7.16,7.16,0,0,1-7.38-6.9V807.43a7.16,7.16,0,0,1,7.38-6.9H890.15a7.15,7.15,0,0,1,7.38,6.9ZM957.05,835a7.15,7.15,0,0,1-7.38,6.9H912.29v-34.5c0-11.44-9.91-20.71-22.14-20.71H853.26v-7.36a7.16,7.16,0,0,1,7.38-6.9h44.27a7.61,7.61,0,0,0,5.22-2l16.92-15.82v10.94a7.15,7.15,0,0,0,7.38,6.9h15.24a7.15,7.15,0,0,1,7.38,6.9Zm-77.34-5.6a7.83,7.83,0,0,0-6.65-.95l-34.55,10.78V835a7.16,7.16,0,0,0-7.38-6.9H756.85a7.15,7.15,0,0,0-7.38,6.9v55.21a7.15,7.15,0,0,0,7.38,6.9h74.28a7.16,7.16,0,0,0,7.38-6.9V886l34.55,10.78a7.72,7.72,0,0,0,8.15-2.29,6.72,6.72,0,0,0,1.57-4.39V835a6.77,6.77,0,0,0-3.07-5.6Zm-56,53.91H764.23V841.93h59.52ZM868,880.46l-29.51-9.2V853.6L868,844.4Z"/></g></g></svg>